<svg width="308" height="282" viewBox="0 0 308 282" fill="none" xmlns="http://www.w3.org/2000/svg">
<path d="M169.321 46.113C169.407 46.6236 169.493 47.1354 169.58 47.6479C170.054 50.4582 170.532 53.291 170.929 56.0809C171.035 56.8233 171.249 57.3106 171.532 57.6709C171.818 58.0352 172.259 58.3761 172.99 58.6891L172.432 59.9933L172.99 58.6891C175.307 59.681 177.635 60.6649 179.966 61.6504C186.734 64.5113 193.533 67.3854 200.193 70.5037C207.115 73.7444 214.168 76.7148 221.252 79.6984C222.32 80.1482 223.389 80.5983 224.458 81.0496C232.605 84.4895 240.764 87.9991 248.701 91.9833C248.753 92.0094 248.806 92.0357 248.859 92.0621C249.622 92.4447 250.476 92.8726 251.273 93.39C253.083 94.565 254.537 96.0195 254.806 97.8842C255.087 99.8251 254.005 101.547 252.371 103.025C249.66 105.476 247.678 108.326 245.53 111.413C244.832 112.417 244.116 113.446 243.352 114.494C243.002 115.013 242.665 115.517 242.335 116.009C241.784 116.834 241.254 117.626 240.719 118.397C239.029 120.836 237.248 122.589 234.962 123.052C232.67 123.515 230.352 122.584 227.851 120.957C223.73 118.275 219.655 115.524 215.635 112.706L216.348 111.688L215.635 112.706C202.625 103.585 189.577 94.5299 176.368 85.6865C172.193 82.8908 168.081 79.9647 163.989 77.053C161.602 75.3542 159.222 73.6603 156.84 72.0001C155.717 71.2176 154.85 70.2897 154.279 69.1577C153.71 68.028 153.485 66.7907 153.501 65.4608C153.584 58.5024 153.568 51.5124 153.552 44.5099C153.527 33.4796 153.502 22.4183 153.863 11.4007C153.892 10.4998 153.844 9.58361 153.788 8.59818C153.784 8.54193 153.781 8.48542 153.778 8.42867C153.725 7.51244 153.668 6.53289 153.683 5.54883M169.321 46.113L156.065 1.68254C155 2.02135 154.355 2.74582 154.022 3.55707C153.725 4.28404 153.691 5.04822 153.683 5.54883M169.321 46.113C170.36 48.656 171.372 51.2064 172.376 53.7644L173.772 53.2164M169.321 46.113L173.772 53.2164M153.683 5.54883L155.183 5.57175L153.683 5.54883ZM173.772 53.2164L172.376 53.7644C173.229 55.9381 174.46 58.0463 177.374 59.0946C192.769 64.6338 208.013 70.5483 223.199 76.6183C224.136 76.9929 225.18 77.2474 226.245 77.085C227.367 76.9138 228.317 76.3106 229.079 75.3403C229.886 74.3122 230.704 73.282 231.526 72.2477C233.578 69.6644 235.651 67.0556 237.613 64.3905C238.487 63.2024 239.235 61.7403 238.754 60.2541C238.271 58.766 236.803 58.0119 235.354 57.5543C232.309 56.5921 229.339 55.4223 226.324 54.2234C226.184 54.1679 226.044 54.1123 225.905 54.0567C223.04 52.9171 220.128 51.7588 217.141 50.7766C209.633 48.3073 202.217 45.621 194.775 42.9256C193.21 42.3586 191.644 41.7913 190.075 41.2255C188.72 40.7366 187.82 40.3067 187.21 39.488L186.007 40.384L187.21 39.488C184.757 36.1949 182.301 32.9235 179.848 29.6547C176.897 25.7232 173.948 21.7954 171.011 17.8379C169.025 15.1632 167.089 12.49 165.148 9.80856C163.638 7.72367 162.124 5.63377 160.581 3.53428C160.211 3.031 159.677 2.39476 158.936 1.97008C158.127 1.50614 157.145 1.33866 156.065 1.68253L173.772 53.2164Z" fill="black" stroke="#CA4141" stroke-width="3"/>
<path d="M52.4395 102.553C51.8876 102.484 51.3373 102.415 50.7893 102.345C52.2401 102.333 53.6971 102.338 55.163 102.342C55.8728 102.345 56.5847 102.347 57.2989 102.348C59.1359 102.349 60.8827 102.098 62.4825 101.388C64.0764 100.68 65.4406 99.5548 66.5822 97.9358C68.782 95.457 70.9645 93.0044 73.1339 90.5665C76.3476 86.9551 79.5328 83.3757 82.7039 79.7905C84.9614 77.2381 87.194 74.6933 89.4242 72.1512C92.0247 69.187 94.6221 66.2264 97.2523 63.2615C97.8781 62.556 98.4832 61.6937 98.6822 60.6508C98.8959 59.5314 98.5997 58.4501 97.9002 57.4312C95.1564 53.4342 92.2312 49.5453 89.0156 45.8449C88.1646 44.8656 87.0478 44.1448 85.7403 44.1559C84.4098 44.1671 83.3217 44.9304 82.5388 45.9752C81.5453 47.3008 80.3868 48.5155 79.1555 49.7945L79.025 49.93C77.8531 51.1469 76.6172 52.4303 75.5318 53.84C71.096 59.6008 66.3985 65.0802 61.6719 70.5938C58.5776 74.2031 55.4709 77.827 52.4169 81.554C51.2814 82.9397 49.9319 83.8014 48.1449 84.2864C41.8084 86.0062 35.54 87.9348 29.2996 89.8548C28.4981 90.1014 27.697 90.3479 26.8963 90.5938C19.851 92.7571 12.8273 94.8763 5.70418 96.6624C4.98375 96.8431 4.00659 97.1062 3.19769 97.6296C2.29939 98.2107 1.56233 99.1467 1.50343 100.534C1.47374 101.234 1.63757 101.888 2.02547 102.443C2.39753 102.976 2.89324 103.299 3.32498 103.506C3.75027 103.71 4.19641 103.838 4.54672 103.932C4.67877 103.967 4.79421 103.997 4.89885 104.023C5.11219 104.078 5.28064 104.121 5.45343 104.177C7.74732 104.914 10.0417 105.655 12.3373 106.396C19.8564 108.823 27.3877 111.254 34.9532 113.576C37.4196 114.333 39.8838 115.074 42.3428 115.812C49.7574 118.04 57.1256 120.253 64.3689 122.869C66.767 123.735 69.562 124.114 72.2544 122.213C79.5661 117.052 86.9104 111.929 94.2667 106.819C95.7997 105.754 97.3326 104.689 98.8655 103.624C113.903 93.1765 128.937 82.7306 144.006 72.3293C145.077 71.5899 145.985 70.8755 146.66 70.1346C147.344 69.3819 147.859 68.524 148.001 67.5059C148.142 66.4868 147.881 65.5187 147.421 64.6026C146.968 63.7014 146.277 62.7614 145.427 61.7503C144.682 60.8649 143.936 59.9879 143.194 59.1148C139.179 54.3941 135.262 49.7878 132.172 44.5819C130.886 42.4151 129.375 40.6346 127.241 40.507C126.183 40.4438 125.198 40.809 124.295 41.3701C123.398 41.9276 122.488 42.7375 121.541 43.7238C111.35 54.3322 101.15 64.9282 90.8907 75.4715C86.7141 79.7638 82.4583 84.0847 78.1987 88.4093C73.6479 93.0297 69.0928 97.6544 64.6253 102.253C63.9495 102.949 63.3446 103.352 62.7383 103.565C62.1394 103.775 61.4246 103.84 60.4639 103.677C57.8064 103.228 55.1043 102.888 52.4395 102.553Z" fill="black" stroke="#CA4141" stroke-width="3"/>
<path d="M257.592 142.972L257.564 142.993L257.538 143.016C255.363 144.874 255.061 147.125 254.929 149.025C254.744 151.674 254.521 154.344 254.298 157.026C253.85 162.394 253.399 167.809 253.24 173.197C253.144 176.411 252.825 179.608 252.5 182.865C252.453 183.332 252.406 183.801 252.36 184.271C251.994 187.993 251.662 191.789 251.725 195.63C251.741 196.595 251.864 197.663 252.41 198.609C252.991 199.616 253.93 200.285 255.171 200.674C257.624 201.443 260.031 202.229 262.448 203.019C264.423 203.664 266.405 204.311 268.423 204.952C269.596 205.325 270.835 205.37 271.902 204.742C272.965 204.118 273.512 203.029 273.753 201.897C273.972 200.866 274.119 199.812 274.189 198.76C275.139 184.433 276.035 170.069 276.29 155.672C276.322 153.874 276.764 152.396 277.811 151.062L276.631 150.136L277.811 151.062C279.03 149.51 280.24 147.958 281.45 146.408C283.691 143.535 285.927 140.669 288.198 137.818C291.313 133.906 294.44 130.013 297.569 126.117C299.964 123.135 302.361 120.151 304.755 117.156C304.789 117.113 304.826 117.068 304.864 117.02C305.221 116.579 305.76 115.912 306.063 115.171C306.246 114.724 306.372 114.192 306.327 113.6C306.281 112.999 306.066 112.429 305.703 111.905L305.703 111.905C305.006 110.897 304.02 110.516 303.064 110.5C302.221 110.487 301.406 110.758 300.849 110.958L301.265 112.116L300.849 110.958C295.037 113.044 289.082 114.735 283.066 116.417C282.693 116.521 282.319 116.625 281.946 116.73C276.311 118.303 270.629 119.89 265.045 121.795C259.677 123.627 254.22 125.145 248.716 126.677C246.173 127.384 243.62 128.095 241.06 128.84L241.48 130.281L241.06 128.84C238.886 129.474 236.713 130.666 235.75 133.255L237.156 133.778L235.75 133.255C235.29 134.493 234.822 135.735 234.353 136.979C233.114 140.266 231.867 143.577 230.72 146.908C224.994 163.53 219.298 180.163 213.662 196.814C211.629 202.819 209.725 208.863 207.917 214.926C207.52 216.259 207.282 217.856 207.787 219.319C208.338 220.914 209.654 222.028 211.656 222.515C217.699 223.985 223.565 225.906 229.497 227.848C231.293 228.435 233.095 229.025 234.909 229.605C237.048 230.289 239.034 230.437 240.633 229.396C242.187 228.385 242.911 226.542 243.333 224.507C244.249 220.096 244.77 215.599 245.281 211.181C245.494 209.338 245.706 207.508 245.944 205.704C246.462 201.781 247.003 197.848 247.545 193.911C248.383 187.814 249.224 181.706 249.982 175.605C250.849 168.634 251.623 161.647 252.394 154.671C252.726 151.674 253.057 148.68 253.396 145.689C253.481 144.933 253.685 144.367 253.992 143.918C254.297 143.472 254.765 143.053 255.516 142.682L254.928 141.494L255.516 142.682C257.945 141.481 260.277 140.271 262.594 139.069C262.633 139.049 262.672 139.029 262.711 139.008C261.01 140.318 259.307 141.64 257.592 142.972Z" fill="black" stroke="#CA4141" stroke-width="3"/>
<path d="M59.4287 128.345L59.4021 128.354L59.3759 128.365C56.8919 129.325 54.5362 130.071 52.1447 130.829C51.875 130.914 51.6049 131 51.3341 131.086C49.5424 131.655 47.7135 132.078 45.8164 132.517C45.446 132.603 45.0729 132.689 44.697 132.777C42.4276 133.309 40.0828 133.901 37.8065 134.815C35.4962 135.743 33.6419 136.999 32.9209 138.927C32.1853 140.895 32.8303 143 34.1018 145.1L35.3636 144.337L34.1018 145.1C34.5184 145.789 34.9703 146.453 35.3961 147.078C35.4171 147.109 35.438 147.14 35.4589 147.17C35.9113 147.835 36.3338 148.46 36.7119 149.099L37.9273 148.379L36.7119 149.099C39.0071 152.974 41.2955 156.862 43.585 160.751C46.8074 166.225 50.0321 171.702 53.2811 177.157C58.5109 185.937 63.7719 194.701 69.0314 203.463C71.1056 206.919 73.1797 210.374 75.2515 213.83C75.9839 215.051 76.1241 215.71 75.8213 216.316C74.2761 219.407 72.7141 222.49 71.1462 225.572C71.2019 225.382 71.2575 225.19 71.3126 224.995C71.968 222.683 72.4816 220.867 72.7795 219.358C73.0816 217.827 73.1847 216.508 72.9658 215.18C72.7472 213.853 72.2264 212.634 71.4567 211.275C70.7256 209.984 69.7181 208.48 68.4476 206.584L68.2992 206.363C60.7975 195.166 53.3479 183.94 45.9885 172.662L44.7323 173.482L45.9884 172.662C45.228 171.497 44.2991 170.539 43.0449 170.081C41.7757 169.617 40.4431 169.763 39.0852 170.242L39.5585 171.585L39.0852 170.242C36.8301 171.036 34.5954 171.786 32.3485 172.539C30.6083 173.123 28.8608 173.709 27.0906 174.321C25.6485 174.819 24.185 175.572 23.6746 177.038C23.1604 178.515 23.8576 180.004 24.6904 181.265L25.9396 180.44L24.6904 181.265C25.5312 182.538 26.4143 183.794 27.2825 185.029C27.5646 185.431 27.8452 185.83 28.1223 186.227L29.3432 185.374L28.1223 186.227C29.7346 188.536 31.3447 190.848 32.9555 193.162C36.9392 198.884 40.927 204.611 44.9617 210.305C49.0361 216.055 52.4923 220.985 51.937 228.08C51.4449 234.368 51.4316 240.669 51.4542 246.918C51.4561 247.441 51.4582 247.962 51.4603 248.484C51.4838 254.22 51.507 259.909 51.1975 265.584C51.166 266.16 51.1443 266.97 51.3879 267.747C51.6598 268.614 52.2462 269.396 53.2717 269.857C54.4731 270.397 55.557 270.218 56.4304 269.714C57.0632 269.349 57.6097 268.785 57.9622 268.421C58.0149 268.366 58.0632 268.317 58.1068 268.273C58.4867 267.889 58.8522 267.391 59.1188 267.028C59.2062 266.91 59.283 266.805 59.3462 266.724L58.1749 265.813L59.3462 266.724C62.3337 262.88 65.321 259.036 68.3083 255.191C75.5289 245.9 82.7494 236.608 89.9725 227.319C91.9682 224.752 93.9775 222.194 95.9894 219.633L96.4595 219.035C97.1198 218.194 97.5208 217.279 97.6349 216.282C97.7472 215.3 97.5696 214.342 97.2343 213.422C95.2415 207.955 93.3205 202.462 91.4034 196.959C87.8324 186.707 84.2797 176.448 80.7295 166.188C79.4967 162.625 78.2698 159.057 77.0423 155.488C74.415 147.848 71.7854 140.202 69.0908 132.58C68.3279 130.422 67.3332 128.647 65.5133 127.884C63.7572 127.148 61.6965 127.565 59.4287 128.345Z" fill="black" stroke="#CA4141" stroke-width="3"/>
<path d="M187.436 266.49L187.479 266.479L187.521 266.465C190.943 265.368 193.617 264.842 196.757 265.897C206.627 269.213 216.57 272.351 226.498 275.484C230.539 276.759 234.576 278.033 238.606 279.318C238.723 279.355 238.842 279.396 238.983 279.445C239.117 279.491 239.272 279.544 239.43 279.594C239.74 279.691 240.135 279.798 240.565 279.831C241.01 279.866 241.524 279.823 242.045 279.593C242.569 279.363 243 278.988 243.347 278.516C244.08 277.518 244.13 276.471 243.812 275.559C243.568 274.859 243.099 274.242 242.811 273.861C242.786 273.829 242.762 273.798 242.74 273.769L241.542 274.671L242.74 273.769C236.116 264.971 229.481 256.179 222.816 247.406C220.987 244.999 219.146 242.616 217.309 240.237C213.516 235.327 209.742 230.439 206.133 225.422L204.915 226.297L206.133 225.422C205.146 224.049 204.049 223.026 202.698 222.369C201.354 221.717 199.883 221.488 198.248 221.501C189.562 221.569 180.912 221.591 172.258 221.613C164.428 221.633 156.595 221.653 148.727 221.708C144.52 221.737 140.28 221.687 136.024 221.637C127.808 221.541 119.53 221.444 111.3 221.912C109.103 222.037 107.195 222.377 105.852 223.571C104.463 224.806 104.013 226.64 103.861 228.8C103.358 235.968 102.895 243.144 102.53 250.327C102.463 251.64 102.501 252.819 102.725 253.827C102.953 254.853 103.395 255.789 104.196 256.486C104.994 257.18 105.987 257.496 107.047 257.596C108.093 257.695 109.299 257.594 110.645 257.369C119.537 255.883 128.395 254.229 137.234 252.559C153.193 249.543 169.145 246.488 185.094 243.433C187.945 242.887 190.796 242.341 193.646 241.796L193.364 240.322L193.646 241.796C195.318 241.476 196.588 241.802 197.772 242.887C199.746 244.696 201.739 246.487 203.725 248.271L203.864 248.396C204.302 248.79 204.74 249.183 205.177 249.577C202.617 247.842 199.899 246.053 196.996 244.974C193.235 243.576 189.106 243.33 184.382 245.56C184.373 245.561 184.363 245.562 184.353 245.564C184.307 245.57 184.252 245.58 184.19 245.595L184.19 245.595C180.478 246.463 176.766 247.332 173.055 248.201C163.189 250.512 153.325 252.822 143.455 255.113C141.974 255.457 140.721 256.107 139.867 257.202C139.012 258.298 138.709 259.644 138.739 261.075C138.774 262.803 138.77 264.505 138.766 266.226C138.764 267.344 138.761 268.47 138.77 269.618C138.782 271.379 138.809 272.844 138.977 273.965C139.139 275.053 139.484 276.219 140.482 276.95C141.462 277.667 142.682 277.674 143.793 277.538C144.947 277.397 146.41 277.037 148.181 276.581C161.184 273.234 174.187 269.89 187.436 266.49Z" fill="black" stroke="#CA4141" stroke-width="3"/>
</svg>
