<svg width="305" height="274" viewBox="0 0 305 274" fill="none" xmlns="http://www.w3.org/2000/svg">
<path d="M63.2661 123.873L63.2306 123.885L63.1957 123.898C60.7269 124.852 58.386 125.594 55.993 126.352C55.7236 126.438 55.4536 126.523 55.1826 126.61C53.4119 127.172 51.6057 127.59 49.7089 128.029C49.3372 128.115 48.962 128.201 48.583 128.29C46.311 128.822 43.9343 129.422 41.6201 130.351C39.2753 131.293 37.25 132.619 36.4526 134.752C35.6356 136.937 36.3763 139.216 37.674 141.359L37.674 141.359C38.0979 142.059 38.5565 142.733 38.9808 143.357C39.0025 143.388 39.024 143.42 39.0455 143.452C39.4988 144.118 39.9127 144.73 40.2817 145.353L40.2817 145.353C42.5753 149.226 44.8633 153.113 47.1529 157.002C50.3761 162.478 53.6024 167.958 56.8516 173.413C62.0816 182.193 67.3431 190.958 72.6025 199.72C74.6769 203.176 76.751 206.631 78.8227 210.087C79.1662 210.66 79.36 211.077 79.4372 211.415C79.5004 211.692 79.48 211.881 79.3741 212.092C78.5659 213.709 77.7532 215.323 76.9375 216.936C77.0667 216.412 77.1783 215.919 77.27 215.455C77.5784 213.892 77.6914 212.508 77.4592 211.098C77.2272 209.691 76.6765 208.414 75.8918 207.028C75.1511 205.721 74.1339 204.203 72.8704 202.317L72.7146 202.085C65.2137 190.889 57.7653 179.664 50.4072 168.389L48.7323 169.482L50.4072 168.389C49.6169 167.178 48.6128 166.121 47.2165 165.611C45.8 165.094 44.3404 165.269 42.919 165.77C40.6629 166.565 38.4383 167.311 36.1974 168.063C34.458 168.646 32.7088 169.233 30.9273 169.848C29.4757 170.349 27.7964 171.167 27.2024 172.874C26.6033 174.594 27.4338 176.269 28.2732 177.54C29.1184 178.82 30.0074 180.085 30.8766 181.321C31.1579 181.722 31.4372 182.119 31.7123 182.513L33.1497 181.509L31.7123 182.513C33.3238 184.821 34.9335 187.133 36.5441 189.446C40.5282 195.168 44.5178 200.899 48.5537 206.594C52.6408 212.362 55.9778 217.15 55.4385 224.041C54.9446 230.351 54.9317 236.671 54.9542 242.92C54.9561 243.442 54.9582 243.963 54.9603 244.484C54.9837 250.223 55.0069 255.897 54.6982 261.557C54.6665 262.137 54.638 263.026 54.9108 263.896C55.2213 264.887 55.8988 265.788 57.0667 266.313C58.4307 266.926 59.6838 266.722 60.6803 266.147C61.3808 265.743 61.9836 265.119 62.3291 264.761C62.379 264.709 62.4235 264.663 62.4622 264.624C62.8723 264.21 63.2808 263.653 63.5463 263.292C63.625 263.185 63.6911 263.095 63.741 263.031L62.1772 261.815L63.741 263.031C66.7294 259.185 69.7176 255.34 72.7057 251.495C79.9255 242.204 87.145 232.914 94.3672 223.626C96.3616 221.061 98.3696 218.505 100.381 215.944L100.853 215.344C101.563 214.439 102.006 213.438 102.132 212.339C102.255 211.259 102.058 210.221 101.704 209.251C99.7126 203.788 97.7927 198.298 95.8756 192.794C92.3047 182.543 88.7522 172.285 85.2021 162.024C83.9699 158.464 82.7433 154.897 81.516 151.328C78.8884 143.687 76.2575 136.037 73.5622 128.414C72.7921 126.235 71.7363 124.274 69.7066 123.423C67.7619 122.608 65.5375 123.091 63.2661 123.873Z" fill="#CA4141" stroke="black" stroke-width="4"/>
<path d="M253.285 138.577L253.248 138.605L253.213 138.636C250.877 140.631 250.564 143.063 250.43 144.991C250.246 147.625 250.024 150.288 249.801 152.966C249.353 158.342 248.9 163.781 248.74 169.182C248.645 172.377 248.328 175.556 248.003 178.814C247.956 179.282 247.909 179.751 247.863 180.222C247.496 183.945 247.162 187.766 247.225 191.638C247.242 192.631 247.367 193.802 247.977 194.859C248.634 195.998 249.688 196.733 251.021 197.151C253.477 197.921 255.875 198.704 258.287 199.492C260.26 200.136 262.242 200.784 264.271 201.429C265.523 201.827 266.922 201.898 268.155 201.174C269.383 200.452 269.984 199.212 270.242 198.001L268.286 197.585L270.242 198.001C270.466 196.946 270.616 195.869 270.688 194.793C271.638 180.466 272.535 166.092 272.79 151.681C272.821 149.97 273.237 148.604 274.204 147.371L273.048 146.463L274.204 147.371C275.425 145.816 276.637 144.263 277.846 142.712C280.086 139.841 282.32 136.978 284.589 134.129C287.705 130.217 290.829 126.327 293.957 122.432C296.353 119.45 298.75 116.466 301.146 113.468C301.178 113.427 301.214 113.383 301.252 113.336C301.604 112.902 302.193 112.175 302.526 111.36C302.731 110.859 302.878 110.249 302.826 109.562C302.772 108.863 302.522 108.21 302.114 107.62C301.312 106.461 300.164 106.018 299.072 106.001C298.13 105.986 297.239 106.287 296.68 106.487L297.268 108.126L296.68 106.487C290.887 108.566 284.948 110.253 278.931 111.935C278.557 112.04 278.183 112.144 277.808 112.249C272.177 113.822 266.481 115.412 260.884 117.322C255.529 119.149 250.096 120.661 244.599 122.19C242.053 122.899 239.493 123.611 236.92 124.36L237.48 126.281L236.92 124.36C234.677 125.014 232.324 126.278 231.281 129.081L231.281 129.081C230.822 130.315 230.356 131.554 229.887 132.797C228.648 136.086 227.397 139.407 226.247 142.746C220.521 159.368 214.825 176.002 209.188 192.654L211.083 193.295L209.188 192.654C207.153 198.665 205.248 204.715 203.438 210.783C203.029 212.154 202.758 213.873 203.314 215.482C203.931 217.268 205.403 218.482 207.538 219.001C213.56 220.466 219.401 222.378 225.329 224.319C227.128 224.908 228.935 225.499 230.757 226.081C232.94 226.779 235.114 226.982 236.906 225.815C238.637 224.689 239.395 222.669 239.823 220.608C240.744 216.174 241.268 211.641 241.78 207.214C241.993 205.376 242.204 203.556 242.44 201.769C242.957 197.852 243.497 193.922 244.039 189.985C244.878 183.885 245.72 177.769 246.479 171.666C247.346 164.692 248.12 157.699 248.892 150.722C249.223 147.726 249.554 144.733 249.893 141.745C249.971 141.051 250.153 140.568 250.405 140.2C250.654 139.837 251.05 139.47 251.737 139.13L250.917 137.47L251.738 139.13C252.534 138.736 253.318 138.343 254.093 137.95C253.824 138.159 253.555 138.368 253.285 138.577Z" fill="#CA4141" stroke="black" stroke-width="4"/>
<path d="M183.561 257.974L183.618 257.959L183.674 257.941C187.07 256.853 189.614 256.369 192.598 257.371C202.472 260.688 212.422 263.828 222.352 266.962C226.392 268.237 230.428 269.51 234.454 270.794C234.561 270.829 234.672 270.867 234.809 270.914L234.82 270.918C234.954 270.964 235.115 271.019 235.28 271.071C235.603 271.172 236.04 271.292 236.526 271.33C237.033 271.369 237.633 271.321 238.247 271.051C238.864 270.779 239.36 270.343 239.75 269.812L238.138 268.628L239.75 269.812C240.59 268.669 240.651 267.447 240.284 266.394C240.012 265.614 239.495 264.935 239.21 264.561C239.185 264.528 239.161 264.496 239.14 264.468L237.542 265.671L239.14 264.468C232.515 255.67 225.88 246.877 219.214 238.104L217.622 239.314L219.214 238.104C217.38 235.69 215.536 233.303 213.698 230.923C209.908 226.016 206.143 221.141 202.539 216.13L200.915 217.297L202.539 216.13C201.518 214.709 200.361 213.621 198.917 212.92C197.482 212.222 195.928 211.987 194.244 212.001C185.552 212.069 176.909 212.091 168.26 212.113C160.433 212.133 152.602 212.153 144.724 212.208C140.536 212.237 136.307 212.187 132.055 212.138C123.827 212.041 115.517 211.944 107.272 212.413L107.363 214.012L107.272 212.413C105.068 212.538 103.002 212.88 101.52 214.197C99.9768 215.569 99.5164 217.577 99.3626 219.765C98.8588 226.934 98.3959 234.114 98.0303 241.301C97.9626 242.633 97.9984 243.864 98.2369 244.936C98.4805 246.031 98.9626 247.076 99.8682 247.863C100.769 248.647 101.873 248.987 103 249.094C104.108 249.199 105.363 249.09 106.727 248.862C115.625 247.375 124.487 245.721 133.326 244.05C149.287 241.034 165.24 237.979 181.19 234.924C184.04 234.378 186.89 233.832 189.74 233.287L189.365 231.328L189.74 233.287C191.271 232.994 192.377 233.288 193.434 234.256C194.46 235.196 195.49 236.13 196.522 237.062C195.434 236.466 194.316 235.931 193.17 235.505C189.315 234.073 185.067 233.816 180.236 236.076C180.189 236.084 180.135 236.094 180.076 236.108L180.076 236.108C176.363 236.976 172.651 237.845 168.939 238.715C159.074 241.025 149.211 243.335 139.342 245.626C137.789 245.987 136.419 246.682 135.473 247.895C134.526 249.109 134.208 250.58 134.239 252.085C134.274 253.81 134.27 255.499 134.266 257.215C134.264 258.333 134.261 259.463 134.27 260.621C134.282 262.374 134.309 263.876 134.482 265.039C134.649 266.158 135.019 267.499 136.187 268.353C137.33 269.19 138.719 269.173 139.853 269.035C141.046 268.889 142.543 268.519 144.306 268.065C157.308 264.718 170.312 261.375 183.561 257.974Z" fill="#CA4141" stroke="black" stroke-width="4"/>
<path d="M212.343 112.696L211.348 114.115C198.339 104.995 185.294 95.9424 172.09 87.102C167.91 84.3032 163.786 81.3687 159.69 78.4535C157.304 76.7556 154.927 75.0644 152.554 73.4103L153.697 71.7695L152.554 73.4103C151.377 72.5899 150.447 71.6025 149.833 70.3826C149.22 69.166 148.984 67.8456 149.001 66.4549C149.084 59.5124 149.068 52.5282 149.052 45.5273C149.027 34.488 149.002 23.4073 149.363 12.3844C149.392 11.5091 149.345 10.6141 149.288 9.62699C149.285 9.56956 149.282 9.51177 149.278 9.45364C149.225 8.54093 149.168 7.54428 149.183 6.54119M212.343 112.696L151.913 2.20607C150.691 2.59475 149.942 3.43529 149.56 4.36752C149.224 5.18738 149.191 6.03284 149.183 6.54119M212.343 112.696L211.348 114.115C215.373 116.937 219.453 119.691 223.579 122.376C226.105 124.02 228.568 125.046 231.061 124.542C233.546 124.039 235.424 122.144 237.13 119.682C237.667 118.908 238.201 118.109 238.755 117.281C239.082 116.792 239.416 116.292 239.762 115.782C240.539 114.714 241.263 113.674 241.965 112.665C244.103 109.591 246.041 106.805 248.706 104.396C250.386 102.877 251.617 101.001 251.301 98.8127C251 96.726 249.387 95.1661 247.545 93.9706C246.723 93.4374 245.846 92.9977 245.087 92.6173C245.033 92.5901 244.979 92.5631 244.926 92.5365C236.973 88.5442 228.8 85.0291 220.652 81.589C219.583 81.1373 218.513 80.687 217.445 80.2372C210.36 77.2533 203.317 74.2871 196.405 71.0509C189.736 67.9282 182.924 65.0487 176.154 62.1869C173.824 61.2021 171.499 60.2193 169.187 59.2295L168.4 61.0681L169.187 59.2295C168.51 58.9397 168.146 58.6433 167.925 58.362C167.708 58.0861 167.521 57.6873 167.424 57.0104C167.169 55.2138 166.878 53.3919 166.576 51.5693M212.343 112.696L166.576 51.5693M149.183 6.54119L151.183 6.57175L149.183 6.54119ZM166.576 51.5693C167.024 52.6935 167.468 53.8195 167.91 54.9471L169.772 54.2164L167.91 54.9471C168.786 57.1778 170.093 59.4457 173.204 60.565L173.841 58.7963L173.204 60.5651C188.592 66.1016 203.83 72.0138 219.014 78.0826C219.991 78.4732 221.131 78.7606 222.32 78.5793C223.586 78.3861 224.644 77.7039 225.472 76.6489C226.275 75.6259 227.091 74.5987 227.911 73.5661C229.966 70.98 232.048 68.3599 234.015 65.687C234.901 64.4832 235.792 62.8369 235.229 61.0999C234.665 59.3605 232.973 58.5413 231.505 58.0775C228.479 57.1215 225.525 55.9583 222.508 54.7588C222.367 54.7027 222.226 54.6466 222.085 54.5904C219.224 53.4522 216.299 52.2887 213.297 51.3017C205.797 48.8348 198.389 46.1516 190.948 43.4562C189.382 42.8891 187.815 42.3214 186.245 41.7551C184.893 41.2674 184.124 40.8777 183.611 40.1893L182.007 41.384L183.611 40.1893C181.154 36.8916 178.699 33.62 176.246 30.3519C173.296 26.4228 170.351 22.4987 167.412 18.5399C165.426 15.8644 163.495 13.198 161.556 10.5207C160.047 8.43633 158.533 6.34533 156.984 4.23815M166.576 51.5693L151.913 2.20606C153.135 1.81732 154.261 2.00671 155.185 2.5363C156.017 3.01354 156.601 3.71775 156.984 4.23815M156.984 4.23815L155.373 5.42266L156.984 4.23815Z" fill="#CA4141" stroke="black" stroke-width="4"/>
<path d="M145.29 73.7408L144.192 72.1493L145.29 73.7408C146.371 72.9944 147.317 72.2544 148.029 71.4711C148.756 70.6721 149.336 69.7247 149.496 68.5748C149.656 67.4235 149.356 66.3512 148.867 65.3781C148.388 64.4248 147.668 63.4497 146.809 62.4285C146.061 61.5385 145.312 60.6584 144.569 59.7836C140.554 55.0623 136.668 50.493 133.602 45.3267L131.882 46.3474L133.602 45.3267C132.317 43.1618 130.687 41.1524 128.271 41.0079C127.075 40.9365 125.986 41.3515 125.031 41.9455C124.083 42.5346 123.14 43.3783 122.18 44.3774C111.99 54.9857 101.79 65.5807 91.5324 76.1228C87.3694 80.4011 83.1102 84.7254 78.846 89.0549C74.2882 93.6824 69.7246 98.3158 65.2666 102.905C64.6273 103.563 64.0856 103.913 63.5728 104.093C63.0697 104.27 62.4431 104.336 61.5473 104.184C60.7895 104.056 60.0275 103.937 59.2637 103.824C60.8022 103.746 62.2911 103.463 63.6853 102.845C65.3607 102.101 66.7883 100.922 67.9745 99.247C70.1669 96.7766 72.3428 94.3314 74.5059 91.9006C77.7204 88.2882 80.9069 84.7074 84.0784 81.1217C86.3407 78.564 88.5732 76.0193 90.8026 73.4781C93.4006 70.5167 95.9944 67.5601 98.6263 64.5933C99.2739 63.8633 99.9492 62.9189 100.173 61.7446C100.417 60.4681 100.071 59.2533 99.3124 58.1482C96.5605 54.1394 93.6237 50.2348 90.393 46.517C89.4861 45.4734 88.2415 44.6432 86.7361 44.6559C85.2 44.6689 83.9807 45.5517 83.1386 46.6753C82.1664 47.9726 81.029 49.1662 79.7953 50.4477L79.6587 50.5896C78.4913 51.8017 77.2383 53.1028 76.1356 54.5349C71.7043 60.29 67.0256 65.7472 62.3081 71.2497C59.2125 74.8603 56.1002 78.4905 53.0301 82.2371C51.9632 83.5392 50.7046 84.345 49.0139 84.8039C42.6688 86.526 36.392 88.4572 30.1525 90.377C29.3509 90.6236 28.5499 90.87 27.7495 91.1158C20.7044 93.2791 13.6918 95.3948 6.58257 97.1775C5.8659 97.3572 4.81288 97.636 3.92609 98.2098C2.9201 98.8606 2.07098 99.9324 2.00388 101.513C1.9702 102.306 2.1564 103.072 2.61554 103.729C3.05356 104.356 3.63064 104.728 4.10898 104.957C4.57872 105.182 5.06281 105.32 5.41802 105.415C5.5636 105.454 5.68484 105.485 5.79111 105.512C5.99374 105.564 6.14192 105.602 6.30047 105.653C8.59286 106.389 10.8863 107.13 13.1812 107.871C20.7011 110.298 28.2372 112.731 35.8065 115.054C38.2794 115.813 40.7476 116.555 43.2091 117.294C50.6203 119.521 57.9698 121.728 65.199 124.339C67.6677 125.231 70.6582 125.658 73.5428 123.622C80.853 118.461 88.1961 113.34 95.552 108.23C97.0848 107.165 98.6175 106.1 100.15 105.035C115.187 94.5873 130.222 84.1418 145.29 73.7408Z" fill="#CA4141" stroke="black" stroke-width="4"/>
</svg>
