<svg width="346" height="335" viewBox="0 0 346 335" fill="none" xmlns="http://www.w3.org/2000/svg">
<g filter="url(#filter0_d_4_51)">
<path d="M89.0079 188.084C92.4608 184.787 94.3453 184.665 97.4439 187.856C105.702 196.36 113.849 204.965 122.049 213.523C129.56 221.363 137.073 229.201 144.601 237.026C148.641 241.226 152.688 245.421 156.79 249.564C157.94 250.726 158.422 251.979 158.037 253.583C157.22 256.997 156.401 260.41 155.601 263.827C151.809 280.025 148.022 296.224 144.232 312.422C144.095 313.008 144.01 313.61 143.804 314.175C143.392 315.308 143.034 316.634 141.469 316.647C140.158 316.659 139.623 315.63 139.208 314.58C134.611 302.949 128.539 291.937 124.228 280.228C121.557 272.972 115.856 269.701 109.809 266.211C101.327 261.315 92.9064 256.324 84.4609 251.371C82.7369 250.36 80.9982 249.37 79.3035 248.316C76.7977 246.758 76.6682 245.43 78.8291 243.362C81.8818 240.44 84.9966 237.579 88.0304 234.64C89.8083 232.917 91.3931 232.84 93.4711 234.148C104.874 241.325 116.337 248.417 127.834 255.46C136.136 260.545 136.159 260.493 137.655 270.083C138.161 273.325 138.297 276.67 140.361 279.621C140.616 273.125 140.896 266.628 141.108 260.131C141.158 258.592 140.09 257.637 138.899 256.823C127.138 248.779 115.36 240.757 103.624 232.681C94.6752 226.523 85.7848 220.289 76.853 214.109C75.5441 213.204 74.1183 212.452 72.7996 211.559C68.9865 208.975 68.8485 206.393 72.1178 202.939C75.3222 199.554 79.338 197.105 82.7719 193.979C84.8324 192.103 86.9033 190.249 89.0079 188.084Z" fill="#CA4141"/>
<path d="M87.6269 186.637L87.5998 186.663L87.5737 186.69C85.7291 188.588 83.9119 190.239 82.0544 191.928C81.8453 192.118 81.6357 192.308 81.4254 192.5C80.0516 193.751 78.585 194.885 77.0447 196.075C76.7429 196.309 76.4382 196.544 76.1309 196.783C74.289 198.216 72.3798 199.753 70.6654 201.564C68.9282 203.399 67.642 205.45 67.8081 207.721C67.9784 210.047 69.6031 211.809 71.6776 213.214L71.6776 213.214C72.3551 213.673 73.0533 214.094 73.6991 214.483C73.7321 214.503 73.7649 214.523 73.7976 214.543C74.4876 214.958 75.1196 215.342 75.7151 215.754L75.7151 215.754C79.4166 218.315 83.1189 220.891 86.8236 223.469C92.0391 227.097 97.2595 230.729 102.49 234.328C110.909 240.122 119.351 245.888 127.789 251.653C131.117 253.926 134.445 256.199 137.77 258.474C138.322 258.851 138.672 259.149 138.883 259.424C139.057 259.649 139.117 259.829 139.109 260.066C139.05 261.872 138.986 263.678 138.918 265.485C138.817 264.954 138.712 264.46 138.602 264C138.229 262.451 137.754 261.146 136.954 259.962C136.156 258.781 135.122 257.85 133.83 256.919C132.611 256.04 131.053 255.086 129.117 253.9L128.878 253.754C117.387 246.715 105.931 239.627 94.5364 232.455L93.4711 234.148L94.5363 232.455C93.3125 231.685 91.9587 231.144 90.477 231.264C88.9739 231.386 87.721 232.155 86.6387 233.203C84.9207 234.868 83.2111 236.475 81.489 238.094C80.1522 239.35 78.8079 240.614 77.4462 241.917C76.3368 242.979 75.1526 244.424 75.3254 246.222C75.4998 248.036 76.954 249.211 78.2475 250.015C79.5499 250.825 80.8859 251.602 82.1922 252.363C82.615 252.609 83.0347 252.853 83.4492 253.097L84.336 251.584L83.4492 253.097C85.8773 254.52 88.3055 255.949 90.7351 257.378C96.7451 260.913 102.763 264.453 108.809 267.943C114.932 271.477 119.964 274.433 122.352 280.919C124.539 286.859 127.166 292.607 129.797 298.275C130.016 298.749 130.236 299.221 130.455 299.693C132.874 304.898 135.265 310.044 137.348 315.316C137.562 315.856 137.907 316.676 138.518 317.352C139.214 318.122 140.206 318.658 141.486 318.647C142.982 318.635 144.035 317.926 144.701 316.988C145.168 316.328 145.455 315.509 145.62 315.04C145.644 314.972 145.665 314.911 145.684 314.86C145.883 314.312 146.022 313.636 146.112 313.196C146.139 313.066 146.161 312.957 146.18 312.878L144.251 312.426L146.18 312.878C147.289 308.136 148.398 303.394 149.507 298.652C152.187 287.195 154.866 275.739 157.549 264.283C158.29 261.119 159.046 257.958 159.805 254.791L159.983 254.049C160.25 252.931 160.234 251.836 159.889 250.785C159.551 249.752 158.938 248.891 158.211 248.157C154.12 244.025 150.083 239.839 146.042 235.639C138.516 227.816 131.004 219.98 123.493 212.14C120.886 209.419 118.282 206.691 115.676 203.96C110.097 198.116 104.512 192.263 98.8787 186.463C97.2692 184.805 95.4905 183.464 93.2909 183.538C91.1835 183.61 89.3644 184.978 87.6269 186.637Z" stroke="black" stroke-width="4"/>
</g>
<g filter="url(#filter1_d_4_51)">
<path d="M268.194 121.556C271.727 114.764 275.161 108.175 278.938 101.733C276.582 102.801 275.975 105.084 274.572 106.783C270.848 111.289 267.37 115.981 263.691 120.523C262.372 122.151 262.169 123.755 262.761 125.555C265.899 135.082 269.116 144.583 272.149 154.146C275.208 163.79 278.062 173.502 281.048 183.17C282.905 189.18 285.085 195.085 286.501 201.238C287.397 205.137 286.439 207.053 282.256 207.564C274.178 208.55 266.084 209.289 258.062 210.85C254.816 211.482 253.625 209.301 253.267 206.777C252.38 200.529 251.588 194.26 250.929 187.977C249.095 170.497 247.324 153.008 245.584 135.516C245.106 130.706 244.817 125.871 244.456 121.046C244.301 118.973 245.375 117.404 246.923 116.062C253.238 110.587 259.78 105.338 265.824 99.5974C274.872 91.0032 284.94 83.5109 293.846 74.7799C294.686 73.9567 295.68 73.1475 296.837 73.8325C298.221 74.6519 297.792 76.0828 297.478 77.347C295.351 85.9131 293.175 94.4699 291.063 103.039C289.719 108.492 288.46 113.961 287.155 119.421C286.671 121.447 286.957 123.31 287.784 125.196C293.549 138.347 298.722 151.741 303.843 165.156C304.193 166.073 304.479 167.023 304.695 167.983C305.097 169.769 304.36 170.925 302.407 171.167C297.798 171.737 293.181 172.226 288.574 172.815C286.567 173.072 285.643 172.104 284.879 170.51C281.638 163.753 279.837 156.447 276.914 149.558C273.77 142.149 271.223 134.484 268.375 126.946C267.732 125.243 267.262 123.574 268.194 121.556Z" fill="#CA4141"/>
<path d="M266.42 120.633L266.398 120.674L266.379 120.717C265.09 123.505 265.821 125.845 266.504 127.653C267.438 130.124 268.348 132.635 269.264 135.162C271.102 140.234 272.962 145.365 275.073 150.34C276.321 153.282 277.361 156.302 278.426 159.399C278.579 159.843 278.732 160.289 278.887 160.737C280.109 164.272 281.401 167.884 283.076 171.375C283.505 172.271 284.108 173.282 285.104 173.988C286.176 174.748 287.441 174.976 288.827 174.799C291.38 174.473 293.886 174.183 296.406 173.891C298.469 173.653 300.54 173.413 302.653 173.152C303.956 172.991 305.258 172.471 306.075 171.298C306.89 170.129 306.918 168.751 306.646 167.544L304.695 167.983L306.646 167.544C306.41 166.492 306.096 165.45 305.711 164.443C300.591 151.028 295.402 137.593 289.615 124.393C288.928 122.825 288.736 121.41 289.1 119.886L287.67 119.544L289.1 119.886C289.56 117.963 290.012 116.046 290.463 114.132C291.299 110.587 292.133 107.054 293.005 103.518C294.202 98.6614 295.416 93.8214 296.632 88.9768C297.562 85.2667 298.494 81.5539 299.419 77.829C299.431 77.7789 299.445 77.724 299.461 77.6646C299.599 77.1234 299.83 76.217 299.792 75.3375C299.769 74.7971 299.649 74.1812 299.314 73.5785C298.974 72.9659 298.473 72.4768 297.856 72.1115C296.644 71.3936 295.416 71.4699 294.416 71.9104C293.554 72.2906 292.87 72.9362 292.446 73.3517L293.664 74.5948L292.446 73.3517C288.051 77.6603 283.359 81.6732 278.595 85.7147C278.298 85.966 278.002 86.2174 277.705 86.469C273.246 90.25 268.735 94.0743 264.446 98.1472C260.344 102.043 256.039 105.686 251.683 109.372C249.666 111.079 247.637 112.796 245.613 114.551L246.923 116.062L245.613 114.551C243.848 116.082 242.238 118.213 242.461 121.195L242.461 121.195C242.559 122.508 242.653 123.828 242.747 125.154C242.994 128.66 243.245 132.2 243.594 135.714C245.334 153.208 247.106 170.701 248.939 188.185L250.929 187.977L248.939 188.185C249.601 194.497 250.397 200.79 251.287 207.059C251.488 208.476 251.96 210.15 253.137 211.38C254.443 212.745 256.288 213.233 258.444 212.814C264.528 211.63 270.633 210.927 276.831 210.214C278.711 209.998 280.599 209.781 282.499 209.549C284.773 209.271 286.833 208.547 287.974 206.739C289.077 204.993 288.921 202.84 288.45 200.79C287.434 196.376 286.018 192.038 284.634 187.802C284.06 186.043 283.491 184.302 282.959 182.58C281.793 178.805 280.643 175.007 279.49 171.204C277.705 165.311 275.915 159.403 274.056 153.541C271.931 146.842 269.713 140.165 267.501 133.503C266.551 130.642 265.601 127.785 264.661 124.929C264.442 124.265 264.406 123.75 264.481 123.311C264.555 122.877 264.762 122.378 265.245 121.782L263.806 120.617L265.245 121.782C265.804 121.092 266.352 120.407 266.892 119.726C266.735 120.028 266.577 120.33 266.42 120.633Z" stroke="black" stroke-width="4"/>
</g>
<g filter="url(#filter2_d_4_51)">
<path d="M251.675 256.686C241.057 265.31 230.638 273.779 220.222 282.252C214.476 286.925 214.098 286.853 211.067 280.383C209.856 277.798 208.708 275.183 207.462 272.615C206.41 270.445 206.775 268.658 208.827 267.069C219.852 258.53 230.854 249.963 241.864 241.406C241.946 241.343 242.059 241.308 242.121 241.233C248.331 233.681 256.159 235.735 263.87 236.956C266.852 237.428 269.863 237.755 273.073 237.49C271.469 236.846 269.902 236.108 268.255 235.577C263.055 233.901 257.814 232.332 252.612 230.661C250.591 230.011 248.812 230.361 247.078 231.599C231.499 242.722 215.925 253.852 200.319 264.938C192.987 270.147 185.64 275.341 178.196 280.395C173.865 283.336 171.983 282.743 170.117 278.071C167.454 271.404 164.881 264.701 162.346 257.983C160.876 254.085 161.676 252.515 165.528 250.472C176.546 244.628 188.108 239.965 199.382 234.688C214.333 227.689 229.348 220.828 244.291 213.816C246.99 212.549 249.084 212.537 251.715 214.031C259.713 218.573 267.962 222.72 276.09 227.058C285.807 232.244 295.506 237.46 305.199 242.686C306.155 243.202 307.257 243.755 306.975 245.123C306.677 246.573 305.424 246.507 304.289 246.646C289.755 248.43 275.233 250.368 260.683 251.928C256.896 252.334 254.387 254.205 251.675 256.686Z" fill="#CA4141"/>
<path d="M252.936 258.239L252.982 258.202L253.026 258.162C255.656 255.754 257.766 254.252 260.896 253.917C271.253 252.806 281.605 251.503 291.936 250.203C296.139 249.674 300.338 249.146 304.532 248.631C304.644 248.617 304.761 248.606 304.905 248.591L304.917 248.59C305.058 248.576 305.227 248.559 305.399 248.537C305.734 248.494 306.182 248.421 306.639 248.252C307.116 248.076 307.641 247.782 308.086 247.28C308.533 246.776 308.801 246.171 308.934 245.527L306.975 245.123L308.934 245.527C309.22 244.138 308.765 243.002 307.992 242.198C307.419 241.603 306.665 241.202 306.251 240.981C306.214 240.961 306.179 240.943 306.148 240.926L305.199 242.686L306.148 240.926C296.454 235.699 286.753 230.481 277.032 225.294L276.09 227.058L277.032 225.294C274.357 223.866 271.685 222.467 269.021 221.073C263.528 218.197 258.07 215.34 252.703 212.292L251.715 214.031L252.703 212.292C251.182 211.428 249.676 210.923 248.071 210.889C246.476 210.855 244.966 211.29 243.442 212.005C235.573 215.698 227.729 219.328 219.88 222.96C212.777 226.247 205.669 229.536 198.534 232.876C194.741 234.652 190.878 236.373 186.994 238.104C179.478 241.453 171.887 244.835 164.591 248.705L165.341 250.121L164.591 248.705C162.641 249.739 160.906 250.913 160.11 252.729C159.281 254.62 159.701 256.636 160.475 258.689C163.012 265.413 165.59 272.13 168.26 278.813C168.754 280.051 169.301 281.154 169.965 282.029C170.644 282.922 171.518 283.67 172.67 284.007C173.816 284.343 174.961 284.191 176.029 283.818C177.081 283.45 178.175 282.827 179.32 282.05C186.783 276.983 194.144 271.778 201.478 266.569C214.72 257.162 227.939 247.723 241.155 238.286C243.517 236.599 245.878 234.913 248.24 233.227L247.081 231.604L248.24 233.227C249.509 232.321 250.636 232.126 252.001 232.565C253.325 232.99 254.652 233.409 255.979 233.824C254.741 233.737 253.502 233.719 252.283 233.81C248.182 234.118 244.215 235.66 240.769 239.731C240.73 239.758 240.685 239.789 240.637 239.826L240.637 239.827C237.626 242.166 234.617 244.507 231.607 246.847C223.609 253.066 215.612 259.284 207.602 265.488C206.341 266.464 205.387 267.668 205.034 269.165C204.68 270.664 205.006 272.134 205.663 273.488C206.416 275.041 207.118 276.577 207.83 278.137C208.295 279.155 208.765 280.183 209.256 281.231C209.999 282.819 210.651 284.172 211.294 285.156C211.913 286.103 212.81 287.167 214.227 287.456C215.615 287.739 216.871 287.143 217.843 286.544C218.866 285.913 220.072 284.952 221.484 283.803C231.9 275.331 242.319 266.862 252.936 258.239Z" stroke="black" stroke-width="4"/>
</g>
<g filter="url(#filter3_d_4_51)">
<path d="M242.644 105.209C242.364 106.903 242.142 108.386 241.88 109.864C240.875 115.541 238.676 117.183 232.953 116.341C228.105 115.628 223.27 114.834 218.458 113.956C202.824 111.101 187.174 108.321 171.464 105.8C163.618 104.541 155.847 102.931 148.031 101.526C145.728 101.112 144.305 99.9412 143.371 97.8451C136.045 81.3927 128.119 65.2115 121.133 48.6035C120.375 46.7999 119.306 45.1293 118.516 43.3375C118.13 42.4639 117.78 41.385 118.703 40.5443C119.723 39.6146 120.861 39.9998 121.842 40.5435C127.007 43.4056 132.121 46.3489 137.299 49.1871C145.202 53.5185 153.151 57.7751 161.062 62.0939C162.386 62.8167 163.792 62.7764 165.237 62.6538C174.782 61.8438 184.328 61.1065 193.861 60.0232C200.305 59.2909 206.796 59.3835 213.258 58.5723C216.152 58.209 217.082 59.2732 216.509 62.0488C215.578 66.5576 214.41 71.03 213.339 75.5169C212.915 77.2884 211.671 77.8953 209.913 77.9843C193.57 78.8124 177.231 79.8062 160.905 81.2056C158.448 81.4161 156.856 80.3546 155.305 78.8635C150.614 74.3513 145.881 69.8794 140.899 65.5589C141.474 67.8021 143.216 69.3719 144.441 71.2245C147.15 75.3243 149.997 79.3365 152.658 83.4658C153.685 85.0602 154.976 85.7133 156.92 85.662C166.789 85.4012 176.668 84.9661 186.522 85.0354C204.183 85.1594 221.882 83.6845 239.526 84.2908C240.449 84.3225 241.379 84.348 242.285 84.4802C246.333 85.0707 247.737 86.9844 246.144 90.7009C244.153 95.3498 243.655 100.199 242.644 105.209Z" fill="#CA4141"/>
<path d="M218.41 114.218L218.099 115.923C202.47 113.07 186.836 110.293 171.147 107.775C166.18 106.978 161.207 106.034 156.267 105.096C153.39 104.55 150.524 104.006 147.677 103.495L148.031 101.526L147.677 103.495C146.265 103.241 145.008 102.732 143.941 101.88C142.875 101.031 142.11 99.9293 141.544 98.6587C138.72 92.3163 135.788 85.9769 132.85 79.6225C128.217 69.6026 123.566 59.5451 119.29 49.3789C118.95 48.5716 118.535 47.7778 118.07 46.9047C118.043 46.8539 118.016 46.8028 117.989 46.7514C117.56 45.9442 117.091 45.0628 116.686 44.145M218.41 114.218L117.356 39.0658C116.408 39.9293 116.078 41.0061 116.12 42.0126C116.157 42.8978 116.48 43.6799 116.686 44.145M218.41 114.218L218.099 115.923C222.934 116.806 227.792 117.603 232.662 118.32C235.644 118.759 238.31 118.662 240.365 117.163C242.413 115.668 243.328 113.162 243.85 110.213C244.014 109.285 244.166 108.336 244.323 107.353C244.416 106.771 244.511 106.178 244.612 105.57C244.872 104.275 245.095 103.027 245.312 101.817C245.971 98.1316 246.568 94.7909 247.983 91.4885C248.875 89.407 249.21 87.1881 248.009 85.3318C246.864 83.5617 244.746 82.8181 242.574 82.5012C241.605 82.3598 240.624 82.3267 239.775 82.2981C239.714 82.296 239.654 82.294 239.595 82.292C230.701 81.9864 221.808 82.2057 212.968 82.4832C211.807 82.5197 210.648 82.5571 209.489 82.5945C201.805 82.8425 194.167 83.089 186.536 83.0354C179.172 82.9837 171.78 83.2125 164.433 83.4399C161.905 83.5181 159.382 83.5962 156.868 83.6627L156.92 85.662L156.867 83.6627C156.131 83.6821 155.677 83.5649 155.358 83.4016C155.046 83.2415 154.71 82.9573 154.339 82.3825C153.356 80.857 152.331 79.3231 151.296 77.7929M218.41 114.218L151.296 77.7929M116.686 44.145L118.516 43.3375L116.686 44.145ZM151.296 77.7929C152.172 78.6277 153.046 79.4652 153.919 80.3049L155.305 78.8634L153.919 80.3049C155.646 81.9661 157.781 83.4806 161.076 83.1982L160.915 81.3254L161.076 83.1982C177.37 81.8017 193.684 80.8092 210.014 79.9818C211.065 79.9285 212.221 79.7135 213.226 79.052C214.296 78.3476 214.972 77.2859 215.284 75.9816C215.586 74.7168 215.898 73.4426 216.213 72.1617C216.999 68.9539 217.796 65.7039 218.468 62.4534C218.77 60.9896 218.892 59.1218 217.655 57.7786C216.416 56.4337 214.536 56.3961 213.009 56.5879C209.86 56.9832 206.69 57.16 203.448 57.3301C203.297 57.338 203.145 57.346 202.993 57.3539C199.918 57.5148 196.775 57.6793 193.635 58.036C185.789 58.9275 177.938 59.5835 170.051 60.2424C168.392 60.3811 166.731 60.5199 165.068 60.661C163.636 60.7825 162.774 60.7497 162.021 60.3384L161.062 62.0939L162.021 60.3384C158.411 58.368 154.814 56.4212 151.22 54.4763C146.899 52.1381 142.584 49.8029 138.26 47.4333C135.338 45.8318 132.47 44.2156 129.59 42.5928C127.348 41.3293 125.099 40.0619 122.812 38.7942M151.296 77.7929L117.356 39.0658C118.304 38.2023 119.406 37.9041 120.466 37.9994C121.422 38.0853 122.247 38.4811 122.812 38.7942M122.812 38.7942L121.842 40.5435L122.812 38.7942Z" stroke="black" stroke-width="4"/>
</g>
<g filter="url(#filter4_d_4_51)">
<path d="M79.6729 161.823C79.0535 165.306 77.0159 167.276 73.9155 168.699C67.7945 171.508 61.5838 174.164 55.9495 178.197C59.656 177.076 63.3645 175.962 67.0684 174.832C70.8325 173.683 74.5677 172.421 78.3629 171.397C80.6254 170.787 81.8209 169.542 82.5727 167.417C86.7415 155.633 91.0722 143.896 95.2512 132.114C100.171 118.245 105.015 104.353 109.843 90.4576C111.569 85.492 113.435 84.6683 117.592 87.5388C123.625 91.7045 130.387 94.5969 137.018 97.7246C141.655 99.9119 142.078 101.458 139.496 105.808C129.194 123.159 118.953 140.543 108.705 157.923C104.155 165.64 99.6195 173.366 95.1291 181.114C93.8306 183.354 91.7263 184.065 89.4098 184.261C79.1422 185.128 68.9484 186.743 58.7286 188.111C48.5031 189.48 38.2577 190.655 28.0187 191.889C26.7462 192.043 25.11 192.699 24.4761 191.15C23.8633 189.653 25.0504 188.561 26.2268 187.616C37.746 178.366 48.3166 168.087 59.6419 158.627C61.293 157.247 62.3369 155.635 62.8718 153.588C65.9156 141.94 69.6216 130.437 72.3097 118.708C73.0902 115.303 74.6528 112.063 75.3956 108.617C75.8212 106.642 77.2432 105.986 79.1419 106.844C83.5459 108.835 87.7768 111.118 91.9024 113.581C93.4865 114.527 93.5734 115.81 93.0826 117.426C90.9496 124.451 88.8894 131.495 86.7668 138.523C84.4406 146.225 82.0748 153.917 79.6729 161.823Z" fill="#CA4141"/>
<path d="M141.216 106.829L139.553 105.841L141.216 106.828C141.886 105.699 142.436 104.632 142.757 103.622C143.083 102.593 143.214 101.49 142.879 100.378C142.544 99.2652 141.824 98.416 140.973 97.7361C140.14 97.0701 139.078 96.4849 137.871 95.9157C136.82 95.4196 135.772 94.9326 134.731 94.4484C129.111 91.8355 123.672 89.3067 118.729 85.8931L117.592 87.5388L118.729 85.8931C116.657 84.4626 114.336 83.3178 112.08 84.1959C110.965 84.6302 110.149 85.462 109.529 86.4008C108.913 87.3319 108.409 88.4924 107.954 89.8011C103.126 103.696 98.2834 117.583 93.3662 131.446C91.3707 137.072 89.3069 142.78 87.2407 148.494C85.0322 154.603 82.8209 160.718 80.6872 166.75C80.3812 167.615 80.0351 168.16 79.6444 168.537C79.261 168.908 78.7193 169.23 77.8421 169.466C77.1001 169.666 76.3579 169.876 75.6167 170.093C76.9819 169.379 78.2167 168.5 79.2252 167.356C80.4369 165.981 81.2413 164.313 81.6197 162.296C82.5799 159.135 83.5357 156.005 84.4858 152.893C85.8978 148.268 87.2974 143.683 88.6814 139.101C89.6687 135.832 90.6343 132.587 91.5986 129.347C92.7222 125.572 93.8441 121.802 94.9963 118.007C95.2798 117.073 95.499 115.933 95.2122 114.772C94.9004 113.511 94.0787 112.552 92.9279 111.864C88.7531 109.371 84.454 107.05 79.9657 105.022C78.7058 104.452 77.2282 104.218 75.8657 104.858C74.4754 105.511 73.7363 106.823 73.4405 108.195C73.099 109.78 72.564 111.34 71.9783 113.019L71.9135 113.205C71.3591 114.794 70.764 116.5 70.3602 118.261C68.7376 125.341 66.7658 132.254 64.7777 139.224C63.4731 143.797 62.1615 148.396 60.9368 153.082C60.5112 154.711 59.7042 155.969 58.3597 157.092C53.3138 161.307 48.4173 165.683 43.5499 170.033C42.9246 170.592 42.2997 171.15 41.6751 171.708C36.1775 176.616 30.6894 181.467 24.9745 186.056C24.3984 186.519 23.5581 187.212 22.992 188.104C22.3498 189.115 22.026 190.444 22.6251 191.908C22.9259 192.643 23.4148 193.261 24.1066 193.666C24.7665 194.053 25.446 194.15 25.9763 194.158C26.4971 194.166 26.9947 194.09 27.3569 194.027C27.5054 194.002 27.6285 193.979 27.7365 193.96C27.9423 193.922 28.0927 193.895 28.2581 193.875C30.6486 193.587 33.0417 193.302 35.4363 193.016C43.2828 192.081 51.1462 191.144 58.994 190.094C61.5579 189.75 64.1102 189.393 66.6555 189.037C74.3191 187.964 81.9191 186.901 89.5781 186.254C92.1936 186.033 95.089 185.172 96.8595 182.117C101.346 174.375 105.879 166.654 110.428 158.939C111.376 157.331 112.324 155.723 113.272 154.116C122.571 138.343 131.869 122.572 141.216 106.829Z" stroke="black" stroke-width="4"/>
</g>
<defs>
<filter id="filter0_d_4_51" x="65.7935" y="181.535" width="108.874" height="152.612" filterUnits="userSpaceOnUse" color-interpolation-filters="sRGB">
<feFlood flood-opacity="0" result="BackgroundImageFix"/>
<feColorMatrix in="SourceAlpha" type="matrix" values="0 0 0 0 0 0 0 0 0 0 0 0 0 0 0 0 0 0 127 0" result="hardAlpha"/>
<feOffset dx="10" dy="11"/>
<feGaussianBlur stdDeviation="1.25"/>
<feComposite in2="hardAlpha" operator="out"/>
<feColorMatrix type="matrix" values="0 0 0 0 0 0 0 0 0 0 0 0 0 0 0 0 0 0 0.4 0"/>
<feBlend mode="normal" in2="BackgroundImageFix" result="effect1_dropShadow_4_51"/>
<feBlend mode="normal" in="SourceGraphic" in2="effect1_dropShadow_4_51" result="shape"/>
</filter>
<filter id="filter1_d_4_51" x="240.44" y="69.5754" width="80.8597" height="158.883" filterUnits="userSpaceOnUse" color-interpolation-filters="sRGB">
<feFlood flood-opacity="0" result="BackgroundImageFix"/>
<feColorMatrix in="SourceAlpha" type="matrix" values="0 0 0 0 0 0 0 0 0 0 0 0 0 0 0 0 0 0 127 0" result="hardAlpha"/>
<feOffset dx="10" dy="11"/>
<feGaussianBlur stdDeviation="1.25"/>
<feComposite in2="hardAlpha" operator="out"/>
<feColorMatrix type="matrix" values="0 0 0 0 0 0 0 0 0 0 0 0 0 0 0 0 0 0 0.4 0"/>
<feBlend mode="normal" in2="BackgroundImageFix" result="effect1_dropShadow_4_51"/>
<feBlend mode="normal" in="SourceGraphic" in2="effect1_dropShadow_4_51" result="shape"/>
</filter>
<filter id="filter2_d_4_51" x="157.656" y="208.887" width="165.864" height="94.142" filterUnits="userSpaceOnUse" color-interpolation-filters="sRGB">
<feFlood flood-opacity="0" result="BackgroundImageFix"/>
<feColorMatrix in="SourceAlpha" type="matrix" values="0 0 0 0 0 0 0 0 0 0 0 0 0 0 0 0 0 0 127 0" result="hardAlpha"/>
<feOffset dx="10" dy="11"/>
<feGaussianBlur stdDeviation="1.25"/>
<feComposite in2="hardAlpha" operator="out"/>
<feColorMatrix type="matrix" values="0 0 0 0 0 0 0 0 0 0 0 0 0 0 0 0 0 0 0.4 0"/>
<feBlend mode="normal" in2="BackgroundImageFix" result="effect1_dropShadow_4_51"/>
<feBlend mode="normal" in="SourceGraphic" in2="effect1_dropShadow_4_51" result="shape"/>
</filter>
<filter id="filter3_d_4_51" x="114.117" y="35.9824" width="149.171" height="98.0662" filterUnits="userSpaceOnUse" color-interpolation-filters="sRGB">
<feFlood flood-opacity="0" result="BackgroundImageFix"/>
<feColorMatrix in="SourceAlpha" type="matrix" values="0 0 0 0 0 0 0 0 0 0 0 0 0 0 0 0 0 0 127 0" result="hardAlpha"/>
<feOffset dx="10" dy="11"/>
<feGaussianBlur stdDeviation="1.25"/>
<feComposite in2="hardAlpha" operator="out"/>
<feColorMatrix type="matrix" values="0 0 0 0 0 0 0 0 0 0 0 0 0 0 0 0 0 0 0.4 0"/>
<feBlend mode="normal" in2="BackgroundImageFix" result="effect1_dropShadow_4_51"/>
<feBlend mode="normal" in="SourceGraphic" in2="effect1_dropShadow_4_51" result="shape"/>
</filter>
<filter id="filter4_d_4_51" x="20.3076" y="81.887" width="137.267" height="127.772" filterUnits="userSpaceOnUse" color-interpolation-filters="sRGB">
<feFlood flood-opacity="0" result="BackgroundImageFix"/>
<feColorMatrix in="SourceAlpha" type="matrix" values="0 0 0 0 0 0 0 0 0 0 0 0 0 0 0 0 0 0 127 0" result="hardAlpha"/>
<feOffset dx="10" dy="11"/>
<feGaussianBlur stdDeviation="1.25"/>
<feComposite in2="hardAlpha" operator="out"/>
<feColorMatrix type="matrix" values="0 0 0 0 0 0 0 0 0 0 0 0 0 0 0 0 0 0 0.4 0"/>
<feBlend mode="normal" in2="BackgroundImageFix" result="effect1_dropShadow_4_51"/>
<feBlend mode="normal" in="SourceGraphic" in2="effect1_dropShadow_4_51" result="shape"/>
</filter>
</defs>
</svg>
