<svg width="297" height="266" viewBox="0 0 297 266" fill="none" xmlns="http://www.w3.org/2000/svg">
<path d="M234.125 110.632C233.162 112.055 232.341 113.309 231.486 114.543C228.202 119.281 225.518 119.855 220.67 116.7C216.562 114.027 212.501 111.286 208.496 108.478C195.483 99.3545 182.425 90.2923 169.203 81.4401C162.6 77.0192 156.212 72.31 149.697 67.7695C147.778 66.4316 146.973 64.7732 147.001 62.4787C147.215 44.47 146.772 26.4574 147.362 8.44981C147.426 6.49423 147.153 4.52996 147.183 2.57175C147.197 1.61695 147.33 0.490378 148.519 0.111938C149.835 -0.306584 150.708 0.518865 151.373 1.42266C154.869 6.18 158.286 10.9902 161.806 15.732C167.178 22.9683 172.623 30.1559 178.007 37.384C178.908 38.5939 180.202 39.1443 181.566 39.6365C190.577 42.887 199.558 46.2041 208.673 49.2016C214.834 51.2277 220.693 54.0229 226.903 55.9846C229.684 56.8632 230.085 58.2188 228.405 60.5013C225.675 64.2089 222.747 67.7851 219.899 71.4142C218.774 72.8471 217.39 72.8787 215.756 72.2255C200.561 66.152 185.3 60.2305 169.881 54.6832C167.561 53.8484 166.558 52.2188 165.772 50.2164C163.394 44.1572 160.961 38.1172 158.239 32.1108C157.825 34.3892 158.752 36.5433 159.091 38.7379C159.84 43.5945 160.752 48.4293 161.444 53.2925C161.712 55.1703 162.612 56.3028 164.4 57.0681C173.475 60.9529 182.633 64.6838 191.557 68.8622C207.553 76.3515 224.251 82.4038 240.028 90.3239C240.853 90.738 241.688 91.1496 242.456 91.6482C245.887 93.8755 246.364 96.2005 243.365 98.9123C239.613 102.304 237.135 106.502 234.125 110.632Z" fill="black"/>
<path d="M62.4028 94.0048C60.3857 96.9102 57.7111 97.8498 54.2999 97.8476C47.5652 97.8431 40.8129 97.6621 34.0089 98.9739C37.8449 99.5031 41.6798 100.04 45.5173 100.56C49.4172 101.088 53.3382 101.501 57.2139 102.156C59.5246 102.547 61.1305 101.916 62.7012 100.299C71.411 91.3322 80.2479 82.477 88.9658 73.5175C99.2282 62.9707 109.432 52.3719 119.623 41.763C123.264 37.9718 125.304 38.003 127.882 42.3474C131.624 48.6519 136.56 54.1044 141.279 59.7157C144.578 63.6398 144.317 65.2211 140.154 68.0948C123.547 79.5581 106.981 91.0753 90.4109 102.587C83.0533 107.699 75.7055 112.823 68.3894 117.988C66.2737 119.481 64.065 119.248 61.8785 118.458C52.187 114.958 42.2505 112.168 32.3933 109.142C22.5306 106.115 12.7309 102.904 2.91233 99.7487C1.69201 99.3565 -0.0689036 99.2699 0.0020805 97.5978C0.0707068 95.9812 1.60557 95.4844 3.069 95.1174C17.3988 91.5241 31.2966 86.5993 45.5378 82.734C47.6141 82.1705 49.236 81.1413 50.5771 79.5048C58.2074 70.193 66.3792 61.2891 73.7203 51.7551C75.8519 48.9868 78.6246 46.6961 80.7391 43.8748C81.9505 42.2583 83.5166 42.256 84.8833 43.8288C88.0534 47.4768 90.944 51.3184 93.6636 55.2801C94.7078 56.8012 94.2512 58.0024 93.1302 59.266C88.2578 64.7584 83.4442 70.2976 78.5803 75.7967C73.2497 81.8234 67.8873 87.8247 62.4028 94.0048Z" fill="black"/>
<path d="M250.512 136.156C256.558 131.461 262.431 126.908 268.553 122.633C265.966 122.619 264.461 124.44 262.477 125.397C257.211 127.937 252.091 130.747 246.851 133.337C244.974 134.265 244.118 135.638 243.905 137.521C242.777 147.488 241.732 157.464 240.494 167.419C239.245 177.46 237.781 187.476 236.457 197.507C235.633 203.744 235.149 210.02 233.865 216.202C233.051 220.119 231.38 221.459 227.366 220.176C219.614 217.699 211.951 214.99 204.01 213.058C200.798 212.276 200.626 209.797 201.355 207.354C203.158 201.306 205.057 195.28 207.083 189.295C212.717 172.647 218.413 156.017 224.138 139.397C225.712 134.827 227.469 130.313 229.156 125.778C229.881 123.83 231.512 122.854 233.48 122.281C241.503 119.943 249.64 117.906 257.529 115.215C269.34 111.186 281.617 108.583 293.356 104.37C294.462 103.972 295.704 103.653 296.469 104.758C297.384 106.081 296.397 107.201 295.584 108.219C290.073 115.114 284.522 121.98 279.024 128.883C275.525 133.276 272.097 137.72 268.631 142.136C267.345 143.775 266.827 145.586 266.791 147.645C266.536 162.002 265.643 176.333 264.692 190.661C264.627 191.64 264.49 192.623 264.286 193.585C263.905 195.376 262.753 196.119 260.877 195.523C256.451 194.116 252.052 192.632 247.619 191.242C245.689 190.637 245.254 189.372 245.225 187.605C245.102 180.112 246.518 172.722 246.739 165.241C246.977 157.196 247.865 149.168 248.425 141.13C248.552 139.313 248.822 137.601 250.512 136.156Z" fill="black"/>
<path d="M179.064 252.037C165.814 255.437 152.81 258.781 139.807 262.128C132.634 263.975 132.321 263.752 132.269 256.607C132.249 253.753 132.297 250.897 132.238 248.044C132.189 245.632 133.266 244.161 135.795 243.574C149.378 240.421 162.953 237.231 176.531 234.055C176.632 234.032 176.749 234.048 176.837 234.005C185.634 229.737 191.888 234.873 198.384 239.203C200.896 240.878 203.496 242.433 206.523 243.532C205.335 242.277 204.219 240.952 202.945 239.782C198.92 236.087 194.813 232.472 190.785 228.781C189.22 227.347 187.457 226.922 185.364 227.322C166.564 230.921 147.765 234.53 128.955 238.085C120.117 239.755 111.272 241.406 102.398 242.889C97.2342 243.752 95.7722 242.427 96.0278 237.403C96.3924 230.233 96.8543 223.067 97.3577 215.905C97.6497 211.75 99.0321 210.657 103.385 210.41C115.837 209.702 128.29 210.294 140.738 210.208C157.245 210.093 173.753 210.131 190.26 210C193.241 209.977 195.149 210.84 196.915 213.297C202.285 220.765 208.048 227.977 213.622 235.314C220.285 244.084 226.918 252.874 233.542 261.671C234.196 262.539 234.966 263.502 234.138 264.628C233.262 265.82 232.151 265.236 231.061 264.889C217.111 260.44 203.107 256.135 189.235 251.475C185.625 250.263 182.563 250.915 179.064 252.037Z" fill="black"/>
<path d="M59.9166 121.764C64.4306 120.211 66.194 120.887 67.6766 125.08C71.6281 136.257 75.4366 147.478 79.312 158.678C82.8622 168.939 86.4153 179.199 89.9869 189.452C91.904 194.956 93.8281 200.458 95.8251 205.936C96.3849 207.471 96.299 208.811 95.28 210.108C93.1117 212.868 90.9422 215.628 88.7883 218.398C78.5768 231.531 68.3704 244.668 58.1618 257.803C57.7926 258.278 57.4637 258.79 57.0406 259.217C56.1926 260.074 55.3138 261.13 53.8866 260.488C52.6903 259.951 52.6338 258.793 52.6952 257.666C53.3764 245.178 52.4589 232.636 53.4324 220.197C54.0358 212.488 50.2219 207.134 46.1856 201.438C40.5234 193.447 34.9572 185.395 29.3521 177.368C28.2079 175.729 27.0418 174.103 25.9421 172.438C24.316 169.976 24.7531 168.715 27.5803 167.738C31.5742 166.359 35.5994 165.06 39.5836 163.656C41.9184 162.834 43.3904 163.426 44.7323 165.482C52.0959 176.766 59.5489 187.998 67.0531 199.198C72.4722 207.286 72.5157 207.249 69.8695 216.587C68.9749 219.743 67.701 222.84 68.3438 226.384C71.2891 220.587 74.2568 214.801 77.163 208.987C77.8518 207.609 77.2798 206.296 76.538 205.058C69.2111 192.838 61.8607 180.629 54.5698 168.389C49.011 159.057 43.5369 149.68 38.0025 140.334C37.1915 138.965 36.2099 137.686 35.385 136.324C32.9997 132.383 33.9526 129.98 38.3656 128.207C42.6908 126.47 47.3624 125.922 51.7884 124.516C54.4441 123.672 57.1 122.852 59.9166 121.764Z" fill="black"/>
</svg>
