<svg width="293" height="269" viewBox="0 0 293 269" fill="none" xmlns="http://www.w3.org/2000/svg">
<g filter="url(#filter0_d_4_60)">
<path d="M113.064 71.0368C99.8141 74.4375 86.8101 77.781 73.8072 81.1285C66.6343 82.9751 66.3206 82.7516 66.2695 75.607C66.249 72.7525 66.2973 69.8972 66.2384 67.0436C66.1886 64.6321 67.2663 63.1611 69.7945 62.5741C83.3784 59.4205 96.9531 56.2311 110.531 53.0552C110.632 53.0317 110.749 53.0477 110.837 53.005C119.634 48.7374 125.888 53.8734 132.384 58.2034C134.896 59.8775 137.496 61.4327 140.523 62.5316C139.335 61.2773 138.219 59.9519 136.945 58.782C132.92 55.0873 128.813 51.4723 124.785 47.7811C123.22 46.3469 121.457 45.9218 119.364 46.3224C100.564 49.9214 81.7649 53.53 62.9549 57.085C54.1168 58.7554 45.2723 60.4063 36.3978 61.8893C31.2342 62.7522 29.7722 61.4274 30.0278 56.4029C30.3924 49.2333 30.8543 42.0674 31.3577 34.9051C31.6497 30.7499 33.0321 29.657 37.3852 29.4096C49.8368 28.7017 62.2899 29.2939 74.7377 29.2077C91.2454 29.0934 107.753 29.1309 124.26 29.0005C127.241 28.9769 129.149 29.8403 130.915 32.2973C136.285 39.7646 142.048 46.9775 147.622 54.3138C154.285 63.0839 160.918 71.8744 167.542 80.6711C168.196 81.5389 168.966 82.5017 168.138 83.6275C167.262 84.8201 166.151 84.2364 165.061 83.8888C151.111 79.4396 137.107 75.1351 123.235 70.4755C119.625 69.2627 116.563 69.9149 113.064 71.0368Z" fill="black"/>
<path d="M113.436 72.4897L113.479 72.4787L113.521 72.4652C116.943 71.3683 119.617 70.8425 122.757 71.8974C132.627 75.2126 142.57 78.3505 152.498 81.4836C156.539 82.7587 160.576 84.0329 164.606 85.3179C164.723 85.3552 164.842 85.3964 164.983 85.4448C165.117 85.4911 165.272 85.5442 165.43 85.5937C165.74 85.6907 166.135 85.7982 166.565 85.8313C167.01 85.8656 167.524 85.8228 168.045 85.5933C168.569 85.3627 169 84.9883 169.347 84.5159C170.08 83.5182 170.13 82.4711 169.812 81.5588C169.568 80.859 169.099 80.2418 168.811 79.8614C168.786 79.8288 168.762 79.7978 168.74 79.7688L167.542 80.6711L168.74 79.7687C162.116 70.9715 155.481 62.179 148.816 53.4064C146.987 50.9994 145.146 48.6157 143.309 46.2374C139.516 41.3265 135.742 36.4395 132.133 31.4215L130.915 32.2973L132.133 31.4215C131.146 30.049 130.049 29.0257 128.698 28.3695C127.354 27.7165 125.883 27.4876 124.248 27.5005C115.562 27.5692 106.912 27.5912 98.2577 27.6133C90.4284 27.6333 82.5952 27.6533 74.7273 27.7077C70.5198 27.7369 66.2803 27.6872 62.0243 27.6374C53.808 27.5411 45.5298 27.4442 37.3001 27.912C35.1033 28.0369 33.1949 28.3768 31.8519 29.5709C30.4632 30.8056 30.0132 32.6395 29.8614 34.8C29.3577 41.9676 28.895 49.144 28.5297 56.3268C28.4629 57.6396 28.5006 58.8187 28.7249 59.827C28.9531 60.8527 29.3947 61.7887 30.1963 62.4858C30.9944 63.1799 31.987 63.4956 33.0468 63.596C34.0931 63.6951 35.2992 63.5937 36.6451 63.3688C45.5366 61.883 54.3948 60.2294 63.2335 58.5589C79.1931 55.5426 95.1446 52.4877 111.094 49.4332C113.945 48.8873 116.796 48.3414 119.646 47.7957L119.364 46.3224L119.646 47.7956C121.318 47.4757 122.588 47.8024 123.772 48.8871C125.746 50.6963 127.739 52.4867 129.725 54.2713L129.864 54.396C130.302 54.7898 130.74 55.1833 131.177 55.5768C128.617 53.8417 125.899 52.0533 122.996 50.9741C119.235 49.576 115.106 49.3299 110.382 51.5597C110.373 51.561 110.363 51.5623 110.353 51.5638C110.307 51.5705 110.252 51.5801 110.19 51.5946L110.19 51.5946C106.478 52.4628 102.766 53.332 99.0553 54.2011C89.1894 56.5116 79.3251 58.8217 69.4553 61.113C67.9742 61.4568 66.7213 62.1068 65.867 63.2021C65.0118 64.2984 64.7092 65.6444 64.7387 67.0745C64.7744 68.8031 64.7704 70.5048 64.7665 72.2262C64.7639 73.3442 64.7613 74.4705 64.7695 75.6177C64.7821 77.3789 64.8093 78.8436 64.9765 79.9648C65.1389 81.0533 65.4836 82.2195 66.4819 82.95C67.4618 83.667 68.6821 83.6742 69.7927 83.5384C70.947 83.3972 72.4104 83.037 74.1812 82.5811C87.1837 79.2337 100.187 75.8903 113.436 72.4897Z" stroke="#CA4141" stroke-width="3"/>
</g>
<g filter="url(#filter1_d_4_60)">
<path d="M197.403 172.005C195.386 174.91 192.711 175.85 189.3 175.848C182.565 175.843 175.813 175.662 169.009 176.974C172.845 177.503 176.68 178.04 180.517 178.56C184.417 179.088 188.338 179.501 192.214 180.156C194.525 180.547 196.131 179.916 197.701 178.299C206.411 169.332 215.248 160.477 223.966 151.518C234.228 140.971 244.432 130.372 254.623 119.763C258.264 115.972 260.304 116.003 262.882 120.347C266.624 126.652 271.56 132.104 276.279 137.716C279.578 141.64 279.317 143.221 275.154 146.095C258.547 157.558 241.981 169.075 225.411 180.587C218.053 185.699 210.706 190.823 203.389 195.988C201.274 197.481 199.065 197.248 196.878 196.458C187.187 192.958 177.25 190.168 167.393 187.142C157.531 184.115 147.731 180.904 137.912 177.749C136.692 177.357 134.931 177.27 135.002 175.598C135.071 173.981 136.606 173.484 138.069 173.117C152.399 169.524 166.297 164.599 180.538 160.734C182.614 160.17 184.236 159.141 185.577 157.505C193.207 148.193 201.379 139.289 208.72 129.755C210.852 126.987 213.625 124.696 215.739 121.875C216.95 120.258 218.517 120.256 219.883 121.829C223.053 125.477 225.944 129.318 228.664 133.28C229.708 134.801 229.251 136.002 228.13 137.266C223.258 142.758 218.444 148.298 213.58 153.797C208.25 159.823 202.887 165.825 197.403 172.005Z" fill="black"/>
<path d="M184.44 177.553C183.888 177.484 183.337 177.415 182.789 177.345C184.24 177.333 185.697 177.338 187.163 177.342C187.873 177.345 188.585 177.347 189.299 177.348C191.136 177.349 192.883 177.098 194.483 176.388C196.076 175.68 197.441 174.555 198.582 172.936C200.782 170.457 202.964 168.004 205.134 165.567C208.348 161.955 211.533 158.376 214.704 154.79C216.961 152.238 219.194 149.693 221.424 147.151C224.025 144.187 226.622 141.226 229.252 138.261C229.878 137.556 230.483 136.694 230.682 135.651C230.896 134.531 230.6 133.45 229.9 132.431C227.156 128.434 224.231 124.545 221.016 120.845C220.165 119.866 219.048 119.145 217.74 119.156C216.41 119.167 215.322 119.93 214.539 120.975C213.545 122.301 212.387 123.516 211.155 124.794L211.025 124.93C209.853 126.147 208.617 127.43 207.532 128.84C203.096 134.601 198.399 140.08 193.672 145.594C190.578 149.203 187.471 152.827 184.417 156.554C183.281 157.94 181.932 158.801 180.145 159.286C173.808 161.006 167.54 162.935 161.3 164.855C160.498 165.101 159.697 165.348 158.896 165.594C151.851 167.757 144.827 169.876 137.704 171.662C136.984 171.843 136.007 172.106 135.198 172.63C134.299 173.211 133.562 174.147 133.503 175.534C133.474 176.234 133.638 176.888 134.025 177.443C134.398 177.976 134.893 178.299 135.325 178.506C135.75 178.71 136.196 178.838 136.547 178.932C136.679 178.967 136.794 178.997 136.899 179.023C137.112 179.078 137.281 179.121 137.453 179.177C139.747 179.914 142.042 180.655 144.337 181.396C151.856 183.823 159.388 186.254 166.953 188.576C169.42 189.333 171.884 190.074 174.343 190.812C181.757 193.04 189.126 195.253 196.369 197.869C198.767 198.735 201.562 199.114 204.254 197.213C211.566 192.052 218.91 186.929 226.267 181.819C227.8 180.754 229.333 179.689 230.866 178.624C245.903 168.176 260.937 157.731 276.006 147.329C277.077 146.59 277.985 145.875 278.66 145.135C279.344 144.382 279.859 143.524 280.001 142.506C280.142 141.487 279.881 140.519 279.421 139.603C278.968 138.701 278.277 137.761 277.427 136.75C276.682 135.865 275.936 134.988 275.194 134.115C271.179 129.394 267.262 124.788 264.172 119.582C262.886 117.415 261.375 115.635 259.241 115.507C258.183 115.444 257.198 115.809 256.295 116.37C255.398 116.928 254.488 117.737 253.541 118.724C243.35 129.332 233.15 139.928 222.891 150.471C218.714 154.764 214.458 159.085 210.199 163.409C205.648 168.03 201.093 172.654 196.625 177.253C195.949 177.949 195.345 178.352 194.738 178.565C194.139 178.775 193.425 178.84 192.464 178.677C189.806 178.228 187.104 177.888 184.44 177.553Z" stroke="#CA4141" stroke-width="3"/>
</g>
<g filter="url(#filter2_d_4_60)">
<path d="M191.917 3.76377C196.431 2.21106 198.194 2.88684 199.677 7.08035C203.628 18.2565 207.437 29.4781 211.312 40.6785C214.862 50.9389 218.415 61.1985 221.987 71.4523C223.904 76.9559 225.828 82.4578 227.825 87.9356C228.385 89.4712 228.299 90.8111 227.28 92.1083C225.112 94.8684 222.942 97.6277 220.788 100.398C210.577 113.531 200.37 126.668 190.162 139.803C189.793 140.278 189.464 140.79 189.041 141.217C188.193 142.074 187.314 143.13 185.887 142.488C184.69 141.951 184.634 140.793 184.695 139.666C185.376 127.178 184.459 114.636 185.432 102.197C186.036 94.4879 182.222 89.1345 178.186 83.4382C172.523 75.4473 166.957 67.3952 161.352 59.368C160.208 57.7293 159.042 56.1034 157.942 54.4382C156.316 51.976 156.753 50.715 159.58 49.7384C163.574 48.3589 167.599 47.0601 171.584 45.6564C173.918 44.8338 175.39 45.4261 176.732 47.4822C184.096 58.7658 191.549 69.9975 199.053 81.1978C204.472 89.2862 204.516 89.2486 201.869 98.5865C200.975 101.743 199.701 104.84 200.344 108.384C203.289 102.587 206.257 96.8007 209.163 90.9867C209.852 89.6089 209.28 88.2957 208.538 87.0584C201.211 74.8377 193.861 62.6294 186.57 50.3893C181.011 41.0572 175.537 31.6796 170.003 22.3343C169.191 20.9647 168.21 19.6865 167.385 18.3237C165 14.3832 165.953 11.9798 170.366 10.2073C174.691 8.47001 179.362 7.92218 183.788 6.51561C186.444 5.6716 189.1 4.85227 191.917 3.76377Z" fill="black"/>
<path d="M191.429 2.34534L191.402 2.35448L191.376 2.36461C188.892 3.32456 186.536 4.07108 184.145 4.82892C183.875 4.91439 183.605 4.99999 183.334 5.08606C181.542 5.65544 179.713 6.07835 177.816 6.51699C177.446 6.60265 177.073 6.68891 176.697 6.77698C174.428 7.3087 172.083 7.90108 169.806 8.81538C167.496 9.7433 165.642 10.9989 164.921 12.9272C164.185 14.8945 164.83 17.0001 166.102 19.1005L167.364 18.3366L166.102 19.1005C166.518 19.7888 166.97 20.4525 167.396 21.0781C167.417 21.109 167.438 21.1397 167.459 21.1703C167.911 21.8352 168.334 22.4602 168.712 23.0986L169.927 22.3789L168.712 23.0986C171.007 26.9743 173.295 30.8616 175.585 34.7508C178.807 40.2247 182.032 45.7024 185.281 51.157C190.511 59.9368 195.772 68.7013 201.031 77.4632C203.106 80.9189 205.18 84.3741 207.251 87.8297C207.984 89.0514 208.124 89.7103 207.821 90.316C206.276 93.4072 204.714 96.4896 203.146 99.5718C203.202 99.382 203.258 99.19 203.313 98.9955C203.968 96.6827 204.482 94.8673 204.779 93.3579C205.082 91.8268 205.185 90.5077 204.966 89.1796C204.747 87.8533 204.226 86.6339 203.457 85.2747C202.726 83.9838 201.718 82.4803 200.448 80.5843L200.299 80.3629C192.797 69.1662 185.348 57.9397 177.988 46.6625L176.732 47.4822L177.988 46.6624C177.228 45.4972 176.299 44.5389 175.045 44.0809C173.776 43.6173 172.443 43.7632 171.085 44.2416L171.558 45.585L171.085 44.2416C168.83 45.0361 166.595 45.7857 164.349 46.5393C162.608 47.123 160.861 47.7092 159.091 48.3206C157.648 48.8187 156.185 49.5721 155.675 51.038C155.16 52.5149 155.858 54.0039 156.69 55.2648L157.94 54.4398L156.69 55.2648C157.531 56.5379 158.414 57.7942 159.283 59.0294C159.565 59.4308 159.845 59.8299 160.122 60.2267L161.343 59.3742L160.122 60.2267C161.735 62.5358 163.345 64.8484 164.956 67.162C168.939 72.8837 172.927 78.6114 176.962 84.3054C181.036 90.0554 184.492 94.9846 183.937 102.08C183.445 108.368 183.432 114.669 183.454 120.918C183.456 121.441 183.458 121.962 183.46 122.484C183.484 128.22 183.507 133.909 183.197 139.584C183.166 140.16 183.144 140.97 183.388 141.747C183.66 142.614 184.246 143.396 185.272 143.857C186.473 144.397 187.557 144.218 188.43 143.714C189.063 143.349 189.61 142.785 189.962 142.421C190.015 142.366 190.063 142.317 190.107 142.273C190.487 141.889 190.852 141.391 191.119 141.028C191.206 140.91 191.283 140.805 191.346 140.724L190.175 139.813L191.346 140.724C194.334 136.88 197.321 133.036 200.308 129.191C207.529 119.9 214.749 110.608 221.973 101.319C223.968 98.7519 225.977 96.1943 227.989 93.6333L228.46 93.0349C229.12 92.1944 229.521 91.2785 229.635 90.2819C229.747 89.2999 229.57 88.3416 229.234 87.4218C227.241 81.9552 225.32 76.4625 223.403 70.9589C219.832 60.7067 216.28 50.4483 212.73 40.188C211.497 36.625 210.27 33.0572 209.042 29.4878C206.415 21.8482 203.785 14.2016 201.091 6.58035C200.328 4.42246 199.333 2.64679 197.513 1.88387C195.757 1.14768 193.697 1.56526 191.429 2.34534Z" stroke="#CA4141" stroke-width="3"/>
</g>
<g filter="url(#filter3_d_4_60)">
<path d="M162.125 246.632C161.162 248.055 160.341 249.309 159.486 250.543C156.202 255.281 153.518 255.855 148.67 252.7C144.562 250.027 140.501 247.286 136.496 244.478C123.483 235.354 110.425 226.292 97.2029 217.44C90.5998 213.019 84.212 208.31 77.6972 203.769C75.7777 202.432 74.9733 200.773 75.0007 198.479C75.2153 180.47 74.7723 162.457 75.362 144.45C75.426 142.494 75.1528 140.53 75.1827 138.572C75.1973 137.617 75.3298 136.49 76.5194 136.112C77.8349 135.693 78.7082 136.519 79.3725 137.423C82.8693 142.18 86.2865 146.99 89.8064 151.732C95.1781 158.968 100.623 166.156 106.007 173.384C106.908 174.594 108.202 175.144 109.566 175.636C118.577 178.887 127.558 182.204 136.673 185.202C142.834 187.228 148.693 190.023 154.903 191.985C157.684 192.863 158.085 194.219 156.405 196.501C153.675 200.209 150.747 203.785 147.899 207.414C146.774 208.847 145.39 208.879 143.756 208.225C128.561 202.152 113.3 196.231 97.8814 190.683C95.5613 189.848 94.5579 188.219 93.772 186.216C91.3938 180.157 88.9612 174.117 86.2391 168.111C85.8248 170.389 86.7523 172.543 87.0908 174.738C87.8401 179.594 88.7516 184.429 89.4445 189.293C89.712 191.17 90.612 192.303 92.3999 193.068C101.475 196.953 110.633 200.684 119.557 204.862C135.553 212.352 152.251 218.404 168.028 226.324C168.853 226.738 169.688 227.15 170.456 227.648C173.887 229.875 174.364 232.201 171.365 234.912C167.613 238.304 165.135 242.502 162.125 246.632Z" fill="black"/>
<path d="M89.3214 179.113C89.4071 179.624 89.4934 180.135 89.5799 180.648C90.054 183.458 90.532 186.291 90.9295 189.081C91.0352 189.823 91.2486 190.311 91.5316 190.671C91.8178 191.035 92.259 191.376 92.9902 191.689L92.432 192.993L92.9902 191.689C95.3072 192.681 97.6349 193.665 99.9664 194.65C106.734 197.511 113.533 200.385 120.193 203.504C127.115 206.744 134.168 209.715 141.252 212.698C142.32 213.148 143.389 213.598 144.458 214.05C152.605 217.489 160.764 220.999 168.701 224.983C168.753 225.009 168.806 225.036 168.859 225.062C169.622 225.445 170.476 225.873 171.273 226.39C173.083 227.565 174.537 229.019 174.806 230.884C175.087 232.825 174.005 234.547 172.371 236.025C169.66 238.476 167.678 241.326 165.53 244.413C164.832 245.417 164.116 246.446 163.352 247.494C163.002 248.013 162.665 248.517 162.335 249.009C161.784 249.834 161.254 250.626 160.719 251.397C159.029 253.836 157.248 255.589 154.962 256.052C152.67 256.515 150.352 255.584 147.851 253.957C143.73 251.275 139.655 248.524 135.635 245.706L136.348 244.688L135.635 245.706C122.625 236.585 109.577 227.53 96.3684 218.687C92.1927 215.891 88.0808 212.965 83.9892 210.053C81.602 208.354 79.2216 206.66 76.8395 205C75.7168 204.218 74.8496 203.29 74.2793 202.158C73.7102 201.028 73.4849 199.791 73.5008 198.461C73.5837 191.502 73.5679 184.512 73.552 177.51C73.5271 166.48 73.502 155.418 73.8628 144.401C73.8923 143.5 73.8445 142.584 73.7876 141.598C73.7844 141.542 73.7811 141.485 73.7778 141.429C73.7246 140.512 73.6678 139.533 73.6829 138.549M89.3214 179.113L76.0646 134.683C74.9996 135.021 74.3547 135.746 74.0224 136.557C73.7246 137.284 73.6905 138.048 73.6829 138.549M89.3214 179.113C90.3596 181.656 91.3717 184.206 92.3756 186.764L93.772 186.216M89.3214 179.113L93.772 186.216M73.6829 138.549L75.1827 138.572L73.6829 138.549ZM93.772 186.216L92.3756 186.764C93.2288 188.938 94.4603 191.046 97.3736 192.095C112.769 197.634 128.013 203.548 143.199 209.618C144.136 209.993 145.18 210.247 146.245 210.085C147.367 209.914 148.317 209.311 149.079 208.34C149.886 207.312 150.704 206.282 151.526 205.248C153.578 202.664 155.651 200.056 157.613 197.391C158.487 196.202 159.235 194.74 158.754 193.254C158.271 191.766 156.803 191.012 155.354 190.554C152.309 189.592 149.339 188.422 146.324 187.223C146.184 187.168 146.044 187.112 145.905 187.057C143.04 185.917 140.128 184.759 137.141 183.777C129.633 181.307 122.217 178.621 114.775 175.926C113.21 175.359 111.644 174.791 110.075 174.225C108.72 173.737 107.82 173.307 107.21 172.488L106.007 173.384L107.21 172.488C104.757 169.195 102.301 165.923 99.8477 162.655C96.8967 158.723 93.9485 154.795 91.0108 150.838C89.0254 148.163 87.0895 145.49 85.1476 142.809C83.6378 140.724 82.1243 138.634 80.5811 136.534C80.2112 136.031 79.677 135.395 78.9361 134.97C78.1268 134.506 77.1455 134.339 76.0646 134.683L93.772 186.216Z" stroke="#CA4141" stroke-width="3"/>
</g>
<g filter="url(#filter4_d_4_60)">
<path d="M52.5119 114.156C58.5581 109.461 64.4308 104.908 70.5525 100.633C67.9657 100.619 66.4614 102.44 64.4769 103.397C59.2109 105.937 54.091 108.747 48.8512 111.337C46.9737 112.265 46.1184 113.638 45.9053 115.521C44.7772 125.488 43.732 135.464 42.494 145.419C41.2454 155.46 39.7814 165.476 38.4568 175.507C37.6333 181.744 37.1486 188.02 35.8645 194.202C35.0509 198.119 33.38 199.459 29.366 198.176C21.6141 195.699 13.9514 192.99 6.01034 191.058C2.79777 190.276 2.62642 187.797 3.35481 185.354C5.1584 179.306 7.05689 173.28 9.08255 167.295C14.7175 150.647 20.4126 134.017 26.1379 117.397C27.7121 112.827 29.4688 108.313 31.1559 103.778C31.8807 101.83 33.5124 100.854 35.4798 100.281C43.5034 97.9435 51.6404 95.9062 59.5293 93.2149C71.3405 89.1856 83.6172 86.5829 95.3556 82.3696C96.4624 81.9723 97.7043 81.6526 98.4693 82.7581C99.3845 84.0807 98.3968 85.2015 97.5836 86.219C92.073 93.1137 86.5225 99.9798 81.0242 106.883C77.5254 111.276 74.0973 115.72 70.6312 120.136C69.3451 121.775 68.827 123.586 68.7906 125.645C68.5363 140.002 67.6425 154.333 66.692 168.661C66.627 169.64 66.4902 170.623 66.2856 171.585C65.9048 173.376 64.7526 174.119 62.8772 173.523C58.4509 172.116 54.0516 170.632 49.6193 169.242C47.6887 168.637 47.2541 167.372 47.2251 165.605C47.1023 158.112 48.5175 150.722 48.7389 143.241C48.9771 135.196 49.8646 127.168 50.4251 119.13C50.5518 117.313 50.8216 115.601 52.5119 114.156Z" fill="black"/>
<path d="M51.5919 112.972L51.5642 112.993L51.5376 113.016C49.3632 114.874 49.0612 117.125 48.9287 119.025C48.744 121.674 48.5215 124.344 48.2979 127.026C47.8505 132.394 47.3991 137.809 47.2396 143.197C47.1445 146.411 46.8252 149.608 46.5 152.865C46.4533 153.332 46.4065 153.801 46.3602 154.271C45.9938 157.993 45.6624 161.789 45.7253 165.63C45.7411 166.595 45.8639 167.663 46.4098 168.609C46.9909 169.616 47.9295 170.285 49.1706 170.674C51.6236 171.443 54.0311 172.229 56.4484 173.019C58.4233 173.664 60.4047 174.311 62.4227 174.952C63.5959 175.325 64.8346 175.37 65.9018 174.742C66.9652 174.118 67.5122 173.029 67.7528 171.897C67.9722 170.866 68.1189 169.812 68.1887 168.76C69.1392 154.433 70.0354 140.069 70.2903 125.672C70.3222 123.874 70.764 122.396 71.8112 121.062L70.6312 120.136L71.8112 121.062C73.0297 119.51 74.2405 117.958 75.4496 116.408C77.691 113.535 79.927 110.669 82.1975 107.818C85.3134 103.906 88.44 100.013 91.569 96.1173C93.9644 93.135 96.3611 90.1511 98.7553 87.1555C98.7891 87.1132 98.8255 87.0682 98.8641 87.0204C99.2208 86.5791 99.76 85.9118 100.063 85.1706C100.246 84.7236 100.372 84.192 100.327 83.5998C100.281 82.9989 100.066 82.4294 99.7028 81.9046L99.7028 81.9046C99.0058 80.8973 98.0196 80.5156 97.0643 80.5005C96.2213 80.4872 95.4062 80.7577 94.8489 80.9578L95.2647 82.1162L94.8489 80.9578C89.0371 83.0438 83.0819 84.7347 77.0659 86.4166C76.6927 86.521 76.3192 86.6253 75.9456 86.7296C70.3114 88.3032 64.6285 89.8904 59.045 91.7952C53.6766 93.6266 48.2203 95.145 42.716 96.6768C40.173 97.3844 37.6198 98.0949 35.0603 98.8405L35.4798 100.281L35.0603 98.8405C32.8857 99.4739 30.7132 100.666 29.75 103.255L31.1559 103.778L29.75 103.255C29.2895 104.493 28.8218 105.735 28.3528 106.979C27.1145 110.266 25.8672 113.577 24.7197 116.908C18.9938 133.53 13.2978 150.163 7.66174 166.814C5.62932 172.819 3.72532 178.863 1.91736 184.926C1.51958 186.259 1.28167 187.856 1.78694 189.319C2.33804 190.914 3.65362 192.028 5.65572 192.515C11.699 193.985 17.5647 195.906 23.4971 197.848C25.2928 198.435 27.0946 199.025 28.9093 199.605C31.048 200.289 33.0339 200.437 34.6334 199.396C36.1871 198.385 36.9105 196.542 37.3332 194.507C38.2494 190.096 38.7696 185.599 39.2807 181.181C39.494 179.338 39.7057 177.508 39.9439 175.704C40.4618 171.781 41.0029 167.848 41.5446 163.911C42.3834 157.814 43.2238 151.706 43.9825 145.605C44.8494 138.634 45.6225 131.647 46.3944 124.671C46.726 121.674 47.0573 118.68 47.3958 115.689C47.4814 114.933 47.6848 114.367 47.9921 113.918C48.2975 113.472 48.7654 113.053 49.5159 112.682L48.9285 111.494L49.5159 112.682C51.945 111.481 54.277 110.271 56.594 109.069C56.6332 109.049 56.6723 109.029 56.7115 109.008C55.0102 110.318 53.3067 111.64 51.5919 112.972Z" stroke="#CA4141" stroke-width="3"/>
</g>
<defs>
<filter id="filter0_d_4_60" x="27" y="26" width="155.798" height="72.6417" filterUnits="userSpaceOnUse" color-interpolation-filters="sRGB">
<feFlood flood-opacity="0" result="BackgroundImageFix"/>
<feColorMatrix in="SourceAlpha" type="matrix" values="0 0 0 0 0 0 0 0 0 0 0 0 0 0 0 0 0 0 127 0" result="hardAlpha"/>
<feOffset dx="9" dy="9"/>
<feGaussianBlur stdDeviation="1.15"/>
<feComposite in2="hardAlpha" operator="out"/>
<feColorMatrix type="matrix" values="0 0 0 0 0 0 0 0 0 0 0 0 0 0 0 0 0 0 0.25 0"/>
<feBlend mode="normal" in2="BackgroundImageFix" result="effect1_dropShadow_4_60"/>
<feBlend mode="normal" in="SourceGraphic" in2="effect1_dropShadow_4_60" result="shape"/>
</filter>
<filter id="filter1_d_4_60" x="132" y="114" width="160.839" height="97.3812" filterUnits="userSpaceOnUse" color-interpolation-filters="sRGB">
<feFlood flood-opacity="0" result="BackgroundImageFix"/>
<feColorMatrix in="SourceAlpha" type="matrix" values="0 0 0 0 0 0 0 0 0 0 0 0 0 0 0 0 0 0 127 0" result="hardAlpha"/>
<feOffset dx="9" dy="9"/>
<feGaussianBlur stdDeviation="1.15"/>
<feComposite in2="hardAlpha" operator="out"/>
<feColorMatrix type="matrix" values="0 0 0 0 0 0 0 0 0 0 0 0 0 0 0 0 0 0 0.25 0"/>
<feBlend mode="normal" in2="BackgroundImageFix" result="effect1_dropShadow_4_60"/>
<feBlend mode="normal" in="SourceGraphic" in2="effect1_dropShadow_4_60" result="shape"/>
</filter>
<filter id="filter2_d_4_60" x="153.998" y="0.000732422" width="88.4711" height="156.985" filterUnits="userSpaceOnUse" color-interpolation-filters="sRGB">
<feFlood flood-opacity="0" result="BackgroundImageFix"/>
<feColorMatrix in="SourceAlpha" type="matrix" values="0 0 0 0 0 0 0 0 0 0 0 0 0 0 0 0 0 0 127 0" result="hardAlpha"/>
<feOffset dx="9" dy="9"/>
<feGaussianBlur stdDeviation="1.15"/>
<feComposite in2="hardAlpha" operator="out"/>
<feColorMatrix type="matrix" values="0 0 0 0 0 0 0 0 0 0 0 0 0 0 0 0 0 0 0.25 0"/>
<feBlend mode="normal" in2="BackgroundImageFix" result="effect1_dropShadow_4_60"/>
<feBlend mode="normal" in="SourceGraphic" in2="effect1_dropShadow_4_60" result="shape"/>
</filter>
<filter id="filter3_d_4_60" x="72" y="133" width="115.651" height="135.971" filterUnits="userSpaceOnUse" color-interpolation-filters="sRGB">
<feFlood flood-opacity="0" result="BackgroundImageFix"/>
<feColorMatrix in="SourceAlpha" type="matrix" values="0 0 0 0 0 0 0 0 0 0 0 0 0 0 0 0 0 0 127 0" result="hardAlpha"/>
<feOffset dx="9" dy="9"/>
<feGaussianBlur stdDeviation="1.15"/>
<feComposite in2="hardAlpha" operator="out"/>
<feColorMatrix type="matrix" values="0 0 0 0 0 0 0 0 0 0 0 0 0 0 0 0 0 0 0.25 0"/>
<feBlend mode="normal" in2="BackgroundImageFix" result="effect1_dropShadow_4_60"/>
<feBlend mode="normal" in="SourceGraphic" in2="effect1_dropShadow_4_60" result="shape"/>
</filter>
<filter id="filter4_d_4_60" x="0" y="79" width="113.136" height="133.947" filterUnits="userSpaceOnUse" color-interpolation-filters="sRGB">
<feFlood flood-opacity="0" result="BackgroundImageFix"/>
<feColorMatrix in="SourceAlpha" type="matrix" values="0 0 0 0 0 0 0 0 0 0 0 0 0 0 0 0 0 0 127 0" result="hardAlpha"/>
<feOffset dx="9" dy="9"/>
<feGaussianBlur stdDeviation="1.15"/>
<feComposite in2="hardAlpha" operator="out"/>
<feColorMatrix type="matrix" values="0 0 0 0 0 0 0 0 0 0 0 0 0 0 0 0 0 0 0.25 0"/>
<feBlend mode="normal" in2="BackgroundImageFix" result="effect1_dropShadow_4_60"/>
<feBlend mode="normal" in="SourceGraphic" in2="effect1_dropShadow_4_60" result="shape"/>
</filter>
</defs>
</svg>
